<?xml version="1.0" encoding="utf-8"?>
<!-- Generator: Adobe Illustrator 22.1.0, SVG Export Plug-In . SVG Version: 6.00 Build 0)  -->
<svg version="1.1" id="Layer_1" xmlns="http://www.w3.org/2000/svg" xmlns:xlink="http://www.w3.org/1999/xlink" x="0px" y="0px"
	 viewBox="0 0 1366 768" style="enable-background:new 0 0 1366 768;" xml:space="preserve">
<style type="text/css">
	.st0{fill:#009245;}
	.st1{fill:#8CC63F;}
	.st2{fill:#FFFFFF;}
	.st3{fill:#00FF00;}
</style>
<g>
	<path class="st0" d="M599.7,350.3c0,0,4.9-5.4,13.7-13.7c46.4-43.8,201.5-168,327.6-9.8l-35.3,23.5L941,365
		C941,365,879.2,479.7,599.7,350.3z"/>
	<polyline class="st0" points="552.7,415 535,270.8 602.7,353.2 	"/>
	<path class="st1" d="M929.2,323.8c0,0-29.4-41.2-91.2-61.8s-26.5,141.2-26.5,141.2s94.1,2.9,117.7-35.3
		c3.2-5.1-41.5-14.9-35.3-17.7"/>
	<circle class="st2" cx="867.4" cy="326.7" r="14.7"/>
	<circle cx="866" cy="328.2" r="10.3"/>
	<g>
		<path class="st3" d="M805.7,259.1c-2.8,0.5-5.5,1.3-8,2.5c-2.5,1.1-5,2.6-6.6,4.9c-0.8,1.1-1.2,2.5-1.3,3.8
			c-0.1,1.4,0.3,2.7,0.9,4c1.1,2.5,3,4.7,4.9,6.6l0.3,0.3l-0.3,0.2c-2.4,1.6-4.6,3.4-6.5,5.5c-1.9,2.1-3.6,4.5-4.3,7.2
			c-0.4,1.3-0.4,2.7-0.2,4.1c0.3,1.3,0.9,2.6,1.7,3.7c1.7,2.2,4,4,6.4,5.4l0.6,0.3l-0.5,0.4c-2,1.5-3.9,3.3-5.5,5.3
			c-1.6,2-2.9,4.2-3.3,6.7c-0.2,1.2-0.1,2.5,0.4,3.6c0.4,1.1,1.2,2.2,2,3.1c1.8,1.8,4,3,6.4,4.1l0.7,0.3l-0.6,0.5
			c-2,1.8-3.8,3.8-5.3,6c-1.5,2.2-2.8,4.7-2.9,7.2c0,1.3,0.3,2.6,0.9,3.7c0.6,1.1,1.6,2,2.7,2.8c2.2,1.5,4.7,2.4,7.3,3.1l1,0.3
			l-0.9,0.5c-2.1,1.3-4.1,2.8-5.7,4.6c-1.6,1.8-2.8,4.1-2.4,6.5c0.4,2.3,2.3,4.2,4.3,5.5c2,1.4,4.3,2.4,6.6,3.3l0.4,0.2l-0.3,0.3
			c-2,2-3.8,4.3-5.2,6.8c-1.4,2.4-2.6,5.2-2.4,8c0.1,1.4,0.7,2.8,1.6,3.8c0.9,1.1,2.1,1.9,3.4,2.5c2.6,1.3,5.5,1.8,8.3,2.2
			c-2.9-0.3-5.7-0.8-8.4-2c-1.3-0.6-2.6-1.4-3.5-2.5c-1-1.1-1.6-2.5-1.7-4c-0.2-1.5,0.1-2.9,0.5-4.3c0.4-1.4,1.1-2.7,1.8-4
			c1.5-2.5,3.2-4.8,5.2-6.9l0.1,0.5c-2.3-0.9-4.7-1.9-6.8-3.3c-1-0.7-2.1-1.5-2.9-2.5c-0.8-1-1.5-2.2-1.8-3.5
			c-0.3-1.3,0-2.7,0.5-3.9c0.5-1.2,1.2-2.3,2.1-3.3c1.7-1.9,3.7-3.5,5.9-4.8l0.1,0.8c-2.7-0.7-5.3-1.6-7.6-3.2c-1.2-0.8-2.2-1.8-3-3
			c-0.7-1.2-1.1-2.7-1-4.2c0.1-2.9,1.5-5.5,3-7.8c1.6-2.3,3.4-4.3,5.5-6.2l0.1,0.8c-2.4-1-4.8-2.4-6.7-4.3c-0.9-1-1.8-2.1-2.2-3.4
			c-0.5-1.3-0.6-2.7-0.4-4.1c0.4-2.7,1.9-5.1,3.5-7.1c1.7-2.1,3.6-3.9,5.7-5.4l0,0.7c-2.5-1.4-4.9-3.2-6.7-5.6
			c-0.8-1.2-1.5-2.6-1.8-4.1c-0.3-1.5-0.2-3,0.2-4.4c0.8-2.9,2.6-5.3,4.6-7.4c2-2.1,4.2-4,6.7-5.5l-0.1,0.5c-2-2-3.8-4.2-5-6.9
			c-0.6-1.3-0.9-2.7-0.9-4.2c0.1-1.4,0.6-2.9,1.4-4c1.7-2.3,4.3-3.8,6.8-4.9C800.2,260.3,802.9,259.5,805.7,259.1z"/>
	</g>
	<g>
		<path class="st3" d="M779.2,268.6c-2.4,0.5-4.7,1.2-7,2.2c-2.2,1-4.4,2.3-5.7,4.3c-0.7,1-1.1,2.1-1.1,3.3c0,1.2,0.3,2.4,0.8,3.4
			c1,2.2,2.6,4.1,4.3,5.8l0.3,0.3l-0.3,0.2c-2,1.4-4,3-5.6,4.8c-1.6,1.8-3.1,3.9-3.7,6.2c-0.3,1.2-0.4,2.4-0.1,3.5
			c0.2,1.2,0.8,2.2,1.4,3.2c1.4,1.9,3.4,3.4,5.6,4.6l0.6,0.3l-0.5,0.4c-1.8,1.3-3.4,2.9-4.8,4.6c-1.4,1.7-2.5,3.7-2.9,5.8
			c-0.2,1.1-0.1,2.1,0.3,3.1c0.4,1,1,1.9,1.8,2.6c1.5,1.5,3.5,2.6,5.5,3.5l0.7,0.3l-0.6,0.5c-1.7,1.5-3.3,3.3-4.6,5.2
			c-1.3,1.9-2.4,4-2.5,6.3c0,1.1,0.2,2.2,0.8,3.1c0.5,1,1.4,1.7,2.3,2.4c1.9,1.3,4.1,2.1,6.4,2.7l1,0.3l-0.9,0.5
			c-1.8,1.1-3.5,2.4-4.9,4c-1.4,1.6-2.4,3.6-2.1,5.6c0.4,2,2,3.6,3.7,4.8c1.8,1.2,3.7,2.1,5.7,2.9l0.4,0.2l-0.3,0.3
			c-1.7,1.8-3.3,3.7-4.5,5.9c-1.2,2.1-2.3,4.5-2.1,7c0.1,1.2,0.6,2.4,1.4,3.3c0.8,0.9,1.8,1.7,3,2.2c2.2,1.1,4.7,1.6,7.2,1.9
			c-2.5-0.3-5-0.7-7.3-1.7c-1.2-0.5-2.2-1.2-3.1-2.2c-0.8-1-1.4-2.2-1.5-3.5c-0.2-2.6,0.8-5.1,2-7.2c1.3-2.2,2.8-4.2,4.5-6l0.1,0.5
			c-2-0.8-4.1-1.7-5.9-2.9c-0.9-0.6-1.8-1.3-2.5-2.2c-0.7-0.9-1.3-1.9-1.5-3c-0.2-1.2,0-2.4,0.4-3.4c0.4-1.1,1.1-2,1.8-2.8
			c1.5-1.7,3.2-3.1,5.1-4.2l0.1,0.8c-2.3-0.6-4.6-1.4-6.7-2.8c-1-0.7-1.9-1.6-2.6-2.7c-0.6-1.1-1-2.4-0.9-3.6
			c0.1-2.5,1.3-4.8,2.6-6.8c1.4-2,3-3.8,4.8-5.4l0.1,0.8c-2.1-0.9-4.2-2.1-5.8-3.7c-0.8-0.8-1.5-1.8-2-3c-0.4-1.1-0.5-2.4-0.3-3.6
			c0.4-2.4,1.7-4.4,3.1-6.2c1.5-1.8,3.1-3.4,5-4.7l0,0.7c-2.2-1.3-4.3-2.8-5.8-4.9c-0.7-1.1-1.3-2.3-1.6-3.6
			c-0.2-1.3-0.2-2.6,0.2-3.9c0.7-2.5,2.3-4.6,4-6.5c1.7-1.8,3.7-3.4,5.8-4.8L770,288c-1.7-1.8-3.3-3.7-4.3-6
			c-0.5-1.1-0.8-2.4-0.7-3.7c0.1-1.3,0.5-2.5,1.2-3.5c1.5-2,3.7-3.3,5.9-4.2C774.4,269.7,776.8,269,779.2,268.6z"/>
	</g>
	<g>
		<path class="st3" d="M755.7,268.6c-2.4,0.5-4.7,1.2-7,2.2c-2.2,1-4.4,2.3-5.7,4.3c-0.7,1-1.1,2.1-1.1,3.3c0,1.2,0.3,2.4,0.8,3.4
			c1,2.2,2.6,4.1,4.3,5.8l0.3,0.3l-0.3,0.2c-2,1.4-4,3-5.6,4.8c-1.6,1.8-3.1,3.9-3.7,6.2c-0.3,1.2-0.4,2.4-0.1,3.5
			c0.2,1.2,0.8,2.2,1.4,3.2c1.4,1.9,3.4,3.4,5.6,4.6l0.6,0.3l-0.5,0.4c-1.8,1.3-3.4,2.9-4.8,4.6c-1.4,1.7-2.5,3.7-2.9,5.8
			c-0.2,1.1-0.1,2.1,0.3,3.1c0.4,1,1,1.9,1.8,2.6c1.5,1.5,3.5,2.6,5.5,3.5l0.7,0.3l-0.6,0.5c-1.7,1.5-3.3,3.3-4.6,5.2
			c-1.3,1.9-2.4,4-2.5,6.3c0,1.1,0.2,2.2,0.8,3.1c0.5,1,1.4,1.7,2.3,2.4c1.9,1.3,4.1,2.1,6.4,2.7l1,0.3l-0.9,0.5
			c-1.8,1.1-3.5,2.4-4.9,4c-1.4,1.6-2.4,3.6-2.1,5.6c0.4,2,2,3.6,3.7,4.8c1.8,1.2,3.7,2.1,5.7,2.9l0.4,0.2l-0.3,0.3
			c-1.7,1.8-3.3,3.7-4.5,5.9c-1.2,2.1-2.3,4.5-2.1,7c0.1,1.2,0.6,2.4,1.4,3.3c0.8,0.9,1.8,1.7,3,2.2c2.2,1.1,4.7,1.6,7.2,1.9
			c-2.5-0.3-5-0.7-7.3-1.7c-1.2-0.5-2.2-1.2-3.1-2.2c-0.8-1-1.4-2.2-1.5-3.5c-0.2-2.6,0.8-5.1,2-7.2c1.3-2.2,2.8-4.2,4.5-6l0.1,0.5
			c-2-0.8-4.1-1.7-5.9-2.9c-0.9-0.6-1.8-1.3-2.5-2.2c-0.7-0.9-1.3-1.9-1.5-3c-0.2-1.2,0-2.4,0.4-3.4c0.4-1.1,1.1-2,1.8-2.8
			c1.5-1.7,3.2-3.1,5.1-4.2l0.1,0.8c-2.3-0.6-4.6-1.4-6.7-2.8c-1-0.7-1.9-1.6-2.6-2.7c-0.6-1.1-1-2.4-0.9-3.6
			c0.1-2.5,1.3-4.8,2.6-6.8c1.4-2,3-3.8,4.8-5.4l0.1,0.8c-2.1-0.9-4.2-2.1-5.8-3.7c-0.8-0.8-1.5-1.8-2-3c-0.4-1.1-0.5-2.4-0.3-3.6
			c0.4-2.4,1.7-4.4,3.1-6.2c1.5-1.8,3.1-3.4,5-4.7l0,0.7c-2.2-1.3-4.3-2.8-5.8-4.9c-0.7-1.1-1.3-2.3-1.6-3.6
			c-0.2-1.3-0.2-2.6,0.2-3.9c0.7-2.5,2.3-4.6,4-6.5c1.7-1.8,3.7-3.4,5.8-4.8l-0.1,0.5c-1.7-1.8-3.3-3.7-4.3-6
			c-0.5-1.1-0.8-2.4-0.7-3.7c0.1-1.3,0.5-2.5,1.2-3.5c1.5-2,3.7-3.3,5.9-4.2C750.9,269.7,753.2,269,755.7,268.6z"/>
	</g>
	<g>
		<path class="st3" d="M729.2,268.6c-2.4,0.5-4.7,1.2-7,2.2c-2.2,1-4.4,2.3-5.7,4.3c-0.7,1-1.1,2.1-1.1,3.3c0,1.2,0.3,2.4,0.8,3.4
			c1,2.2,2.6,4.1,4.3,5.8l0.3,0.3l-0.3,0.2c-2,1.4-4,3-5.6,4.8c-1.6,1.8-3.1,3.9-3.7,6.2c-0.3,1.2-0.4,2.4-0.1,3.5
			c0.2,1.2,0.8,2.2,1.4,3.2c1.4,1.9,3.4,3.4,5.6,4.6l0.6,0.3l-0.5,0.4c-1.8,1.3-3.4,2.9-4.8,4.6c-1.4,1.7-2.5,3.7-2.9,5.8
			c-0.2,1.1-0.1,2.1,0.3,3.1c0.4,1,1,1.9,1.8,2.6c1.5,1.5,3.5,2.6,5.5,3.5l0.7,0.3l-0.6,0.5c-1.7,1.5-3.3,3.3-4.6,5.2
			c-1.3,1.9-2.4,4-2.5,6.3c0,1.1,0.2,2.2,0.8,3.1c0.5,1,1.4,1.7,2.3,2.4c1.9,1.3,4.1,2.1,6.4,2.7l1,0.3l-0.9,0.5
			c-1.8,1.1-3.5,2.4-4.9,4c-1.4,1.6-2.4,3.6-2.1,5.6c0.4,2,2,3.6,3.7,4.8c1.8,1.2,3.7,2.1,5.7,2.9l0.4,0.2l-0.3,0.3
			c-1.7,1.8-3.3,3.7-4.5,5.9c-1.2,2.1-2.3,4.5-2.1,7c0.1,1.2,0.6,2.4,1.4,3.3c0.8,0.9,1.8,1.7,3,2.2c2.2,1.1,4.7,1.6,7.2,1.9
			c-2.5-0.3-5-0.7-7.3-1.7c-1.2-0.5-2.2-1.2-3.1-2.2c-0.8-1-1.4-2.2-1.5-3.5c-0.2-2.6,0.8-5.1,2-7.2c1.3-2.2,2.8-4.2,4.5-6l0.1,0.5
			c-2-0.8-4.1-1.7-5.9-2.9c-0.9-0.6-1.8-1.3-2.5-2.2c-0.7-0.9-1.3-1.9-1.5-3c-0.2-1.2,0-2.4,0.4-3.4c0.4-1.1,1.1-2,1.8-2.8
			c1.5-1.7,3.2-3.1,5.1-4.2l0.1,0.8c-2.3-0.6-4.6-1.4-6.7-2.8c-1-0.7-1.9-1.6-2.6-2.7c-0.6-1.1-1-2.4-0.9-3.6
			c0.1-2.5,1.3-4.8,2.6-6.8c1.4-2,3-3.8,4.8-5.4l0.1,0.8c-2.1-0.9-4.2-2.1-5.8-3.7c-0.8-0.8-1.5-1.8-2-3c-0.4-1.1-0.5-2.4-0.3-3.6
			c0.4-2.4,1.7-4.4,3.1-6.2c1.5-1.8,3.1-3.4,5-4.7l0,0.7c-2.2-1.3-4.3-2.8-5.8-4.9c-0.7-1.1-1.3-2.3-1.6-3.6
			c-0.2-1.3-0.1-2.6,0.2-3.9c0.7-2.5,2.3-4.6,4-6.5c1.7-1.8,3.7-3.4,5.8-4.8L720,288c-1.7-1.8-3.3-3.7-4.3-6
			c-0.5-1.1-0.8-2.4-0.7-3.7c0.1-1.3,0.5-2.5,1.2-3.5c1.5-2,3.7-3.3,5.9-4.2C724.4,269.7,726.8,269,729.2,268.6z"/>
	</g>
	<g>
		<path class="st3" d="M696.8,285.6c-1.4,0.5-2.6,1.4-3.5,2.5c-0.9,1.1-1.5,2.5-1.7,3.9c-0.2,1.4,0.1,2.9,0.4,4.3
			c0.2,0.7,0.4,1.4,0.7,2.1l0.9,2l0.1,0.2l-0.1,0.1c-1,1.3-1.7,2.7-2.4,4.1c-0.6,1.5-1.1,3-1.3,4.6c-0.2,1.6,0,3.1,0.4,4.6l0.4,1.1
			l0.6,1c0.2,0.4,0.4,0.7,0.6,1l0.7,0.9l0.2,0.3l-0.2,0.3c-0.8,1.2-1.4,2.5-2,3.8c-0.5,1.3-0.9,2.7-1,4.1c-0.1,1.4,0,2.8,0.5,4.1
			c0.5,1.3,1.4,2.3,2.4,3.3l0.3,0.3l-0.2,0.3c-0.7,1.2-1.3,2.6-1.8,4c-0.5,1.4-0.8,2.8-1,4.2c-0.1,1.4,0,2.9,0.6,4.1
			c0.3,0.6,0.7,1.2,1.2,1.7c0.5,0.5,1.1,0.9,1.7,1.2l0.5,0.3l-0.4,0.4c-0.8,1-1.5,2.1-2,3.3c-0.5,1.2-0.8,2.4-0.8,3.7
			c0,0.6,0.1,1.2,0.3,1.9c0.2,0.6,0.4,1.2,0.8,1.7c0.3,0.6,0.8,1,1.2,1.5c0.4,0.5,1,0.9,1.4,1.3l0.2,0.2l-0.1,0.2
			c-0.7,1.4-1.3,2.8-1.7,4.3c-0.5,1.5-0.8,3-1,4.5c-0.1,1.5,0,3.1,0.8,4.4c0.4,0.7,0.9,1.2,1.5,1.7c0.6,0.4,1.4,0.7,2.1,0.9
			c-0.8-0.2-1.5-0.4-2.2-0.8c-0.7-0.4-1.2-1-1.7-1.6c-0.8-1.4-1-3-1-4.6c0.1-1.6,0.4-3.1,0.8-4.6c0.4-1.5,1-3,1.7-4.4l0.1,0.4
			c-0.5-0.4-1.1-0.8-1.5-1.3c-0.4-0.5-0.9-1-1.3-1.6c-0.4-0.6-0.6-1.2-0.9-1.9c-0.2-0.7-0.3-1.4-0.3-2.1c0-1.4,0.3-2.8,0.8-4
			c0.5-1.3,1.2-2.4,2.1-3.5l0.1,0.7c-0.7-0.4-1.4-0.8-2-1.3c-0.6-0.6-1.1-1.2-1.4-1.9c-0.7-1.4-0.8-3.1-0.7-4.6c0.1-1.5,0.5-3,1-4.5
			c0.5-1.4,1.1-2.8,1.9-4.2l0.1,0.6c-1.1-1-2.1-2.2-2.7-3.7c-0.5-1.4-0.7-3-0.6-4.5c0.1-1.5,0.6-3,1.1-4.3c0.6-1.4,1.2-2.7,2.1-3.9
			l0,0.6l-0.8-1c-0.3-0.3-0.5-0.7-0.7-1.1l-0.6-1.1l-0.4-1.2c-0.5-1.6-0.6-3.3-0.4-5c0.2-1.7,0.7-3.2,1.4-4.7
			c0.7-1.5,1.5-2.9,2.5-4.2l0,0.3l-0.9-2c-0.2-0.7-0.5-1.4-0.7-2.1c-0.3-1.5-0.5-3-0.2-4.5c0.3-1.5,0.9-2.9,1.9-4
			C694.1,286.8,695.4,286,696.8,285.6z"/>
	</g>
	<g>
		<path class="st3" d="M676.2,303.1c-1.3,0.3-2.6,0.7-3.8,1.2c-1.2,0.6-2.4,1.3-3.1,2.3c-0.8,1.1-0.7,2.5-0.1,3.6
			c0.5,1.2,1.4,2.2,2.3,3.1l0.3,0.3l-0.3,0.2c-1.1,0.7-2.1,1.6-3,2.6c-0.9,1-1.7,2.1-2,3.3c-0.3,1.2,0,2.5,0.7,3.5
			c0.8,1,1.8,1.8,3,2.5l0.6,0.3l-0.5,0.4c-0.9,0.7-1.8,1.6-2.6,2.5c-0.7,0.9-1.4,2-1.5,3.1c-0.2,1.1,0.3,2.2,1.1,2.9
			c0.8,0.8,1.9,1.4,3,1.9l0.7,0.3l-0.6,0.5c-0.9,0.8-1.8,1.8-2.5,2.8c-0.7,1-1.3,2.2-1.3,3.3c-0.1,1.1,0.6,2.2,1.6,2.8
			c1,0.7,2.2,1.1,3.4,1.4l1,0.3l-0.9,0.5c-1,0.6-1.9,1.3-2.6,2.1c-0.7,0.8-1.3,1.9-1.1,2.9c0.2,1,1,1.9,1.9,2.5
			c0.9,0.6,2,1.1,3.1,1.6l0.4,0.2l-0.3,0.3c-0.9,0.9-1.8,2-2.5,3.2c-0.7,1.1-1.2,2.4-1.2,3.7c0.1,1.3,1.1,2.4,2.3,3
			c1.2,0.6,2.6,0.9,3.9,1.1c-1.4-0.1-2.7-0.3-4-0.9c-0.6-0.3-1.2-0.7-1.7-1.2c-0.5-0.5-0.8-1.2-0.9-1.9c-0.1-1.4,0.4-2.8,1.1-4
			c0.7-1.2,1.5-2.3,2.5-3.3l0.1,0.5c-1.1-0.4-2.2-0.9-3.3-1.6c-1-0.7-2-1.6-2.3-2.9c-0.3-1.4,0.4-2.7,1.2-3.6
			c0.8-0.9,1.8-1.7,2.8-2.4l0.1,0.8c-1.3-0.3-2.6-0.7-3.7-1.5c-0.6-0.4-1.1-0.9-1.5-1.5c-0.4-0.6-0.6-1.4-0.5-2.1
			c0.1-1.5,0.7-2.7,1.5-3.8c0.8-1.1,1.6-2.1,2.6-3l0.1,0.8c-1.2-0.5-2.3-1.1-3.3-2.1c-0.5-0.5-0.9-1-1.1-1.7
			c-0.2-0.7-0.3-1.4-0.2-2.1c0.2-1.4,0.9-2.5,1.7-3.5c0.8-1,1.7-1.9,2.8-2.6l0,0.7c-1.2-0.7-2.4-1.6-3.2-2.7c-0.4-0.6-0.7-1.3-0.9-2
			c-0.1-0.7-0.1-1.5,0.1-2.2c0.4-1.4,1.3-2.6,2.2-3.6c1-1,2-1.9,3.2-2.6l-0.1,0.5c-0.9-1-1.8-2-2.4-3.3c-0.3-0.6-0.4-1.3-0.4-2
			c0-0.7,0.3-1.4,0.7-2c0.8-1.1,2.1-1.8,3.3-2.3C673.6,303.6,674.9,303.3,676.2,303.1z"/>
	</g>
	<g>
		<path class="st3" d="M649.7,314.9c-0.9,0.2-1.9,0.5-2.7,0.9c-0.9,0.4-1.7,0.9-2.2,1.7c-0.5,0.8-0.5,1.7-0.1,2.5
			c0.4,0.8,1,1.6,1.7,2.2l0.3,0.3l-0.3,0.2c-0.8,0.5-1.5,1.2-2.2,1.9c-0.6,0.7-1.2,1.5-1.4,2.4c-0.2,0.9,0,1.7,0.5,2.4
			c0.2,0.4,0.6,0.7,0.9,1c0.4,0.3,0.8,0.5,1.2,0.8l0.5,0.4l-0.5,0.4c-0.7,0.5-1.3,1.1-1.8,1.8c-0.5,0.7-1,1.4-1.1,2.2
			c-0.1,0.8,0.2,1.5,0.8,2c0.1,0.2,0.3,0.3,0.5,0.4l0.5,0.4l1.1,0.6l0.7,0.3l-0.6,0.5c-0.7,0.6-1.3,1.3-1.8,2
			c-0.5,0.7-0.9,1.5-0.9,2.3c0,0.8,0.4,1.5,1.1,2c0.7,0.5,1.5,0.8,2.4,1l1,0.3l-0.9,0.5c-0.7,0.4-1.3,0.9-1.9,1.5
			c-0.5,0.6-0.9,1.3-0.8,2c0.1,0.7,0.7,1.3,1.3,1.8c0.4,0.2,0.7,0.4,1.1,0.6l1.1,0.5l0.4,0.2l-0.3,0.3c-0.7,0.7-1.3,1.4-1.8,2.3
			c-0.5,0.8-0.9,1.7-0.9,2.7c0,0.9,0.7,1.7,1.6,2.1c0.9,0.4,1.8,0.7,2.8,0.8c-1-0.1-2-0.2-2.9-0.6c-0.9-0.4-1.8-1.2-1.9-2.3
			c-0.1-1.1,0.3-2.1,0.8-2.9c0.5-0.9,1.1-1.7,1.8-2.4l0.1,0.5l-1.2-0.5c-0.4-0.2-0.8-0.4-1.2-0.6c-0.7-0.5-1.5-1.2-1.7-2.2
			c-0.2-1,0.3-2,0.9-2.7c0.6-0.7,1.3-1.3,2.1-1.7l0.1,0.8c-0.9-0.2-1.9-0.5-2.7-1.1c-0.4-0.3-0.8-0.7-1.1-1.1
			c-0.3-0.5-0.4-1-0.4-1.6c0-1.1,0.5-2,1.1-2.8c0.6-0.8,1.2-1.5,1.9-2.2l0.1,0.8c-0.4-0.2-0.8-0.4-1.3-0.6l-0.6-0.4
			c-0.2-0.1-0.4-0.3-0.5-0.5c-0.2-0.2-0.4-0.4-0.5-0.6l-0.4-0.7l-0.2-0.8c0-0.3,0-0.5,0-0.8c0.2-1,0.7-1.9,1.3-2.6
			c0.6-0.7,1.3-1.4,2-1.9l0,0.7c-0.4-0.3-0.9-0.6-1.3-0.9c-0.4-0.4-0.8-0.7-1.1-1.2c-0.3-0.4-0.5-1-0.7-1.5c0-0.3-0.1-0.6,0-0.8
			c0-0.3,0.1-0.5,0.1-0.8c0.3-1.1,1-1.9,1.6-2.6c0.7-0.7,1.5-1.4,2.4-1.9l-0.1,0.5c-0.7-0.7-1.3-1.5-1.7-2.4c-0.2-0.5-0.3-1-0.3-1.5
			c0-0.5,0.2-1,0.5-1.4c0.6-0.8,1.5-1.3,2.4-1.7C647.8,315.2,648.8,315,649.7,314.9z"/>
	</g>
	<g>
		<path class="st3" d="M590.9,347.3c-3.9-3.7-7.8-7.4-11.7-11.1c-3.9-3.7-7.7-7.5-11.5-11.3c-3.8-3.8-7.6-7.6-11.3-11.5l-5.6-5.8
			c-1.8-2-3.7-3.9-5.5-5.9c2,1.8,3.9,3.7,5.9,5.5l5.8,5.6c3.9,3.7,7.7,7.5,11.5,11.3c3.8,3.8,7.6,7.6,11.3,11.5
			C583.5,339.5,587.2,343.4,590.9,347.3z"/>
	</g>
	<g>
		<path class="st3" d="M594.1,350.5c-3.8-1.8-7.5-3.7-11.3-5.6c-3.7-1.9-7.4-3.9-11.2-5.8c-3.7-2-7.4-4-11-6l-5.5-3.1
			c-1.8-1.1-3.6-2.1-5.4-3.2c1.9,0.9,3.8,1.8,5.7,2.8l5.6,2.8c3.7,1.9,7.4,3.9,11.2,5.8c3.7,2,7.4,4,11,6
			C586.9,346.3,590.5,348.3,594.1,350.5z"/>
	</g>
	<g>
		<path class="st3" d="M595.8,354c-3.2,4-6.5,7.9-9.8,11.8c-3.3,3.9-6.6,7.8-10,11.7c-3.4,3.8-6.7,7.7-10.1,11.5l-5.1,5.7
			c-1.7,1.9-3.5,3.8-5.2,5.6c1.6-2,3.2-4,4.8-6l4.9-5.9c3.3-3.9,6.6-7.8,10-11.7c3.4-3.8,6.7-7.7,10.1-11.5
			C588.9,361.5,592.3,357.7,595.8,354z"/>
	</g>
	<g>
		<path class="st3" d="M594.1,354.7c-3.4,2-6.8,3.9-10.2,5.9c-3.4,1.9-6.9,3.7-10.3,5.6c-3.5,1.8-6.9,3.6-10.4,5.4l-5.2,2.6
			c-1.8,0.8-3.5,1.7-5.3,2.5c1.7-1,3.4-2,5.1-3l5.1-2.9c3.4-1.9,6.9-3.7,10.3-5.6c3.5-1.8,6.9-3.6,10.4-5.4
			C587.1,358.1,590.6,356.3,594.1,354.7z"/>
	</g>
	<g>
		<path class="st3" d="M593.9,351.4c-3.9,0.1-7.8,0.2-11.7,0.2c-3.9,0-7.8-0.1-11.7-0.1c-3.9-0.1-7.8-0.2-11.7-0.3l-5.9-0.2
			c-2-0.1-3.9-0.2-5.9-0.4c2-0.1,3.9-0.1,5.9-0.1l5.9,0c3.9,0,7.8,0.1,11.7,0.1c3.9,0.1,7.8,0.2,11.7,0.3
			C586.1,351,590,351.2,593.9,351.4z"/>
	</g>
</g>
</svg>
