<?xml version="1.0" encoding="utf-8"?>
<!-- Generator: Adobe Illustrator 22.1.0, SVG Export Plug-In . SVG Version: 6.00 Build 0)  -->
<svg version="1.1" id="Layer_1" xmlns="http://www.w3.org/2000/svg" xmlns:xlink="http://www.w3.org/1999/xlink" x="0px" y="0px"
	 viewBox="0 0 1366 768" style="enable-background:new 0 0 1366 768;" xml:space="preserve">
<style type="text/css">
	.st0{fill:#0000FF;}
	.st1{fill:#00FFFF;}
	.st2{fill:#FFFFFF;}
</style>
<g>
	<path class="st0" d="M708.2,331.1c0,0-6.8-7.5-19.1-19.1c-64.4-60.8-280-233.4-455.1-13.6l49.1,32.7L234,351.5
		C234,351.5,319.8,510.9,708.2,331.1z"/>
	<polyline class="st0" points="773.6,421 798.1,220.7 704.1,335.2 	"/>
	<path class="st1" d="M250.4,294.3c0,0,40.9-57.2,126.7-85.8s36.8,196.2,36.8,196.2s-130.8,4.1-163.5-49.1
		c-4.4-7.1,57.6-20.7,49.1-24.5"/>
	<circle class="st2" cx="336.2" cy="298.4" r="20.4"/>
	<circle cx="338.2" cy="300.4" r="14.3"/>
	<g>
		<path class="st1" d="M422,204.3c3.9,0.6,7.7,1.6,11.3,3.1c3.6,1.5,7.2,3.5,9.6,6.8c1.2,1.6,2,3.7,2.1,5.7c0.1,2.1-0.4,4.1-1.2,6
			c-1.6,3.8-4.2,6.9-6.9,9.7l-0.2-1.4c3.5,2.2,6.6,4.8,9.4,7.7c2.8,3,5.3,6.4,6.5,10.5c0.6,2.1,0.8,4.3,0.4,6.5
			c-0.4,2.2-1.4,4.2-2.6,5.9c-2.5,3.5-5.9,6-9.5,8.1l0.1-2.3c3,2.3,5.7,4.8,8.2,7.7c2.3,2.9,4.4,6.3,5.1,10.3c0.3,2,0.1,4.1-0.6,6.1
			c-0.7,1.9-1.9,3.6-3.3,5c-2.8,2.8-6.1,4.7-9.6,6.1l0.4-2.5c2.9,2.7,5.5,5.5,7.8,8.8c1.1,1.6,2.1,3.3,2.9,5.2
			c0.8,1.9,1.3,3.9,1.4,6c0.1,2.1-0.4,4.3-1.6,6.2c-1.1,1.9-2.7,3.3-4.3,4.5c-3.4,2.3-7.1,3.5-10.9,4.5l0.3-2.5
			c3.1,1.9,5.9,4.1,8.3,6.9c1.2,1.4,2.2,2.9,3,4.7c0.7,1.8,1,3.8,0.6,5.8c-0.4,2-1.4,3.7-2.6,5.1c-1.2,1.4-2.7,2.5-4.2,3.6
			c-3,2-6.3,3.4-9.6,4.6l0.3-1.5c2.8,3,5.3,6.2,7.3,9.8c1,1.8,1.9,3.7,2.5,5.6c0.6,2,0.9,4.1,0.7,6.2c-0.2,2.1-1.1,4.1-2.5,5.6
			c-1.4,1.5-3.1,2.7-5,3.5l-0.7,0.3l-0.7,0.3L433,397c-1,0.3-1.9,0.5-2.9,0.7c-1,0.2-2,0.4-3,0.5l-3,0.3c3.9-0.6,7.9-1.4,11.5-3.2
			c1.8-0.8,3.4-2,4.6-3.5c1.2-1.5,2-3.3,2.1-5.2c0.1-1.9-0.2-3.8-0.9-5.7c-0.6-1.8-1.5-3.6-2.5-5.3c-2-3.4-4.5-6.5-7.2-9.3l-1-1
			l1.3-0.5c3.2-1.3,6.3-2.7,9.1-4.6c2.7-1.9,5.2-4.4,5.6-7.3c0.5-3-1.1-6-3.3-8.4c-2.2-2.4-4.9-4.6-7.7-6.2l-2.8-1.7l3.1-0.8
			c3.6-0.9,7.1-2.2,9.9-4.2c1.4-1,2.7-2.2,3.5-3.6c0.8-1.4,1.2-3,1.1-4.7c-0.1-3.3-1.8-6.7-3.8-9.6c-2.1-3-4.6-5.8-7.3-8.2l-1.8-1.6
			l2.2-0.9c3.2-1.4,6.3-3.1,8.6-5.4c1.1-1.2,2.1-2.5,2.7-4c0.5-1.5,0.7-3,0.5-4.6c-0.5-3.2-2.3-6.2-4.4-8.9
			c-2.2-2.7-4.8-5.2-7.5-7.3l-1.7-1.3l1.8-1c3.4-1.9,6.5-4.2,8.7-7.2c1.1-1.5,1.9-3.2,2.2-4.9c0.4-1.8,0.3-3.6-0.2-5.4
			c-0.9-3.6-3.2-6.9-5.8-9.7c-2.6-2.9-5.7-5.5-8.9-7.6l-0.9-0.6l0.8-0.8c2.7-2.7,5.3-5.6,6.8-9.1c0.8-1.7,1.3-3.5,1.3-5.3
			c0-1.8-0.6-3.6-1.7-5.2c-2.1-3.1-5.5-5.2-9-6.9C429.6,206.3,425.9,205.1,422,204.3z"/>
	</g>
	<g>
		<path class="st1" d="M458.8,217.6c3.3,0.5,6.7,1.3,9.8,2.6c3.1,1.3,6.3,3,8.4,5.9c1.1,1.4,1.7,3.2,1.8,5c0.1,1.8-0.3,3.6-1,5.2
			c-1.4,3.3-3.6,6-6,8.5l-0.2-1.4c3,1.9,5.8,4.1,8.2,6.7c2.4,2.6,4.7,5.6,5.7,9.2c0.5,1.8,0.7,3.8,0.3,5.7c-0.3,1.9-1.2,3.7-2.3,5.2
			c-2.2,3.1-5.2,5.3-8.3,7.1l0.1-2.3c2.7,2,5,4.2,7.1,6.7c2,2.5,3.9,5.5,4.5,9c0.3,1.8,0.1,3.6-0.5,5.4c-0.6,1.7-1.7,3.2-2.9,4.4
			c-2.4,2.5-5.4,4.1-8.4,5.4l0.4-2.5c2.6,2.3,4.8,4.8,6.8,7.7c1,1.4,1.8,2.9,2.5,4.6c0.7,1.6,1.2,3.4,1.2,5.3
			c0.1,1.9-0.4,3.8-1.4,5.5c-1,1.7-2.4,2.9-3.8,3.9c-3,2-6.3,3.1-9.5,3.9l0.3-2.5c2.7,1.7,5.1,3.6,7.3,6c1,1.2,2,2.6,2.6,4.2
			c0.6,1.6,0.9,3.4,0.6,5.1c-0.3,1.7-1.2,3.3-2.3,4.5c-1.1,1.3-2.4,2.2-3.7,3.1c-2.6,1.7-5.5,2.9-8.4,4l0.3-1.5
			c2.4,2.6,4.6,5.4,6.3,8.6c0.9,1.6,1.6,3.2,2.1,4.9c0.5,1.7,0.8,3.6,0.6,5.4c-0.2,1.8-1,3.6-2.2,4.9c-1.2,1.3-2.8,2.3-4.4,3
			l-0.6,0.3l-0.6,0.2l-1.2,0.4c-0.8,0.2-1.7,0.4-2.5,0.6c-0.9,0.1-1.7,0.3-2.6,0.4l-2.6,0.3c3.4-0.5,6.9-1.3,9.9-2.8
			c1.5-0.7,2.9-1.8,4-3c1.1-1.3,1.7-2.9,1.8-4.5c0.1-1.6-0.2-3.3-0.8-4.9c-0.6-1.6-1.3-3.1-2.2-4.5c-1.8-2.9-3.9-5.6-6.3-8l-1-1
			l1.3-0.5c2.7-1.1,5.4-2.4,7.8-4c2.3-1.6,4.4-3.8,4.8-6.3c0.4-2.5-0.9-5.1-2.8-7.2c-1.9-2.1-4.2-3.9-6.7-5.4l-2.8-1.7l3.1-0.8
			c3.1-0.8,6.1-1.9,8.6-3.6c2.5-1.7,4.1-4.2,3.9-7c-0.1-2.8-1.5-5.7-3.3-8.3c-1.8-2.6-4-5-6.3-7l-1.8-1.6l2.2-0.9
			c2.8-1.2,5.4-2.7,7.4-4.7c1-1,1.8-2.1,2.3-3.4c0.5-1.2,0.6-2.6,0.4-3.9c-0.4-2.7-1.9-5.3-3.8-7.7c-1.9-2.3-4.1-4.5-6.5-6.3
			l-1.7-1.3l1.8-1c2.9-1.6,5.6-3.7,7.5-6.2c0.9-1.3,1.6-2.7,1.9-4.2c0.3-1.5,0.2-3.1-0.2-4.6c-0.8-3.1-2.8-5.9-5-8.4
			c-2.3-2.5-4.9-4.7-7.7-6.6l-1-0.7l0.8-0.8c2.4-2.3,4.6-4.9,5.9-7.8c0.7-1.5,1.2-3,1.1-4.6c0-1.6-0.5-3.1-1.4-4.5
			c-1.8-2.7-4.8-4.5-7.8-6C465.4,219.4,462.1,218.3,458.8,217.6z"/>
	</g>
	<g>
		<path class="st1" d="M491.5,217.6c3.3,0.5,6.7,1.3,9.8,2.6c3.1,1.3,6.3,3,8.4,5.9c1.1,1.4,1.7,3.2,1.8,5c0.1,1.8-0.3,3.6-1,5.2
			c-1.4,3.3-3.6,6-6,8.5l-0.2-1.4c3,1.9,5.8,4.1,8.2,6.7c2.4,2.6,4.7,5.6,5.7,9.2c0.5,1.8,0.7,3.8,0.3,5.7c-0.3,1.9-1.2,3.7-2.3,5.2
			c-2.2,3.1-5.2,5.3-8.3,7.1l0.1-2.3c2.7,2,5,4.2,7.1,6.7c2,2.5,3.9,5.5,4.5,9c0.3,1.8,0.1,3.6-0.5,5.4c-0.6,1.7-1.7,3.2-2.9,4.4
			c-2.4,2.5-5.4,4.1-8.4,5.4l0.4-2.5c2.6,2.3,4.8,4.8,6.8,7.7c1,1.4,1.8,2.9,2.5,4.6c0.7,1.6,1.2,3.4,1.2,5.3
			c0.1,1.9-0.4,3.8-1.4,5.5c-1,1.7-2.4,2.9-3.8,3.9c-3,2-6.3,3.1-9.5,3.9l0.3-2.5c2.7,1.7,5.1,3.6,7.3,6c1,1.2,2,2.6,2.6,4.2
			c0.6,1.6,0.9,3.4,0.6,5.1c-0.3,1.7-1.2,3.3-2.3,4.5c-1.1,1.3-2.4,2.2-3.7,3.1c-2.6,1.7-5.5,2.9-8.4,4l0.3-1.5
			c2.4,2.6,4.6,5.4,6.3,8.6c0.9,1.6,1.6,3.2,2.1,4.9c0.5,1.7,0.8,3.6,0.6,5.4c-0.2,1.8-1,3.6-2.2,4.9c-1.2,1.3-2.8,2.3-4.4,3
			l-0.6,0.3l-0.6,0.2l-1.2,0.4c-0.8,0.2-1.7,0.4-2.5,0.6c-0.9,0.1-1.7,0.3-2.6,0.4l-2.6,0.3c3.4-0.5,6.9-1.3,9.9-2.8
			c1.5-0.7,2.9-1.8,4-3c1.1-1.3,1.7-2.9,1.8-4.5c0.1-1.6-0.2-3.3-0.8-4.9c-0.6-1.6-1.3-3.1-2.2-4.5c-1.8-2.9-3.9-5.6-6.3-8l-1-1
			l1.3-0.5c2.7-1.1,5.4-2.4,7.8-4c2.3-1.6,4.4-3.8,4.8-6.3c0.4-2.5-0.9-5.1-2.8-7.2c-1.9-2.1-4.2-3.9-6.7-5.4l-2.8-1.7l3.1-0.8
			c3.1-0.8,6.1-1.9,8.6-3.6c2.5-1.7,4.1-4.2,3.9-7c-0.1-2.8-1.5-5.7-3.3-8.3c-1.8-2.6-4-5-6.3-7l-1.8-1.6l2.2-0.9
			c2.8-1.2,5.4-2.7,7.4-4.7c1-1,1.8-2.1,2.3-3.4c0.5-1.2,0.6-2.6,0.4-3.9c-0.4-2.7-1.9-5.3-3.8-7.7c-1.9-2.3-4.1-4.5-6.5-6.3
			L505,276l1.8-1c2.9-1.6,5.6-3.7,7.5-6.2c0.9-1.3,1.6-2.7,1.9-4.2c0.3-1.5,0.2-3.1-0.2-4.6c-0.8-3.1-2.8-5.9-5-8.4
			c-2.3-2.5-4.9-4.7-7.7-6.6l-1-0.7l0.8-0.8c2.4-2.3,4.6-4.9,5.9-7.8c0.7-1.5,1.2-3,1.1-4.6c0-1.6-0.5-3.1-1.4-4.5
			c-1.8-2.7-4.8-4.5-7.8-6C498.1,219.4,494.9,218.3,491.5,217.6z"/>
	</g>
	<g>
		<path class="st1" d="M528.3,217.6c3.3,0.5,6.7,1.3,9.8,2.6c3.1,1.3,6.3,3,8.4,5.9c1.1,1.4,1.7,3.2,1.8,5c0.1,1.8-0.3,3.6-1,5.2
			c-1.4,3.3-3.6,6-6,8.5l-0.2-1.4c3,1.9,5.8,4.1,8.2,6.7c2.4,2.6,4.7,5.6,5.7,9.2c0.5,1.8,0.7,3.8,0.3,5.7c-0.3,1.9-1.2,3.7-2.3,5.2
			c-2.2,3.1-5.2,5.3-8.3,7.1l0.1-2.3c2.7,2,5,4.2,7.1,6.7c2,2.5,3.9,5.5,4.5,9c0.3,1.8,0.1,3.6-0.5,5.4c-0.6,1.7-1.7,3.2-2.9,4.4
			c-2.4,2.5-5.4,4.1-8.4,5.4l0.4-2.5c2.6,2.3,4.8,4.8,6.8,7.7c1,1.4,1.8,2.9,2.5,4.6c0.7,1.6,1.2,3.4,1.2,5.3
			c0.1,1.9-0.4,3.8-1.4,5.5c-1,1.7-2.4,2.9-3.8,3.9c-3,2-6.3,3.1-9.5,3.9l0.3-2.5c2.7,1.7,5.1,3.6,7.3,6c1,1.2,2,2.6,2.6,4.2
			c0.6,1.6,0.9,3.4,0.6,5.1c-0.3,1.7-1.2,3.3-2.3,4.5c-1.1,1.3-2.4,2.2-3.7,3.1c-2.6,1.7-5.5,2.9-8.4,4l0.3-1.5
			c2.4,2.6,4.6,5.4,6.3,8.6c0.9,1.6,1.6,3.2,2.1,4.9c0.5,1.7,0.8,3.6,0.6,5.4c-0.2,1.8-1,3.6-2.2,4.9c-1.2,1.3-2.8,2.3-4.4,3
			l-0.6,0.3l-0.6,0.2l-1.2,0.4c-0.8,0.2-1.7,0.4-2.5,0.6c-0.9,0.1-1.7,0.3-2.6,0.4l-2.6,0.3c3.4-0.5,6.9-1.3,9.9-2.8
			c1.5-0.7,2.9-1.8,4-3c1.1-1.3,1.7-2.9,1.8-4.5c0.1-1.6-0.2-3.3-0.8-4.9c-0.6-1.6-1.3-3.1-2.2-4.5c-1.8-2.9-3.9-5.6-6.3-8l-1-1
			l1.3-0.5c2.7-1.1,5.4-2.4,7.8-4c2.3-1.6,4.4-3.8,4.8-6.3c0.4-2.5-0.9-5.1-2.8-7.2c-1.9-2.1-4.2-3.9-6.7-5.4l-2.8-1.7l3.1-0.8
			c3.1-0.8,6.1-1.9,8.6-3.6c2.5-1.7,4.1-4.2,3.9-7c-0.1-2.8-1.5-5.7-3.3-8.3c-1.8-2.6-4-5-6.3-7l-1.8-1.6l2.2-0.9
			c2.8-1.2,5.4-2.7,7.4-4.7c1-1,1.8-2.1,2.3-3.4c0.5-1.2,0.6-2.6,0.4-3.9c-0.4-2.7-1.9-5.3-3.8-7.7c-1.9-2.3-4.1-4.5-6.5-6.3
			l-1.7-1.3l1.8-1c2.9-1.6,5.6-3.7,7.5-6.2c0.9-1.3,1.6-2.7,1.9-4.2c0.3-1.5,0.2-3.1-0.2-4.6c-0.8-3.1-2.8-5.9-5-8.4
			c-2.3-2.5-4.9-4.7-7.7-6.6l-1-0.7l0.8-0.8c2.4-2.3,4.6-4.9,5.9-7.8c0.7-1.5,1.2-3,1.1-4.6c0-1.6-0.5-3.1-1.4-4.5
			c-1.8-2.7-4.8-4.5-7.8-6C534.9,219.4,531.6,218.3,528.3,217.6z"/>
	</g>
	<g>
		<path class="st1" d="M573.3,241.1c1.9,0.6,3.8,1.7,5.2,3.2c1.4,1.5,2.4,3.5,2.8,5.6l0.2,1.6c0,0.5,0,1.1,0,1.6c0,0.3,0,0.5,0,0.8
			l-0.1,0.8l-0.3,1.6c-0.3,1-0.6,2-0.9,3l-1.2,2.9l-0.1-1c1.5,1.9,2.7,3.8,3.7,5.9c1,2.1,1.7,4.4,2.1,6.8c0.3,2.4,0.3,4.9-0.5,7.2
			c-0.7,2.4-2,4.5-3.6,6.3l0.1-1.7c1.3,1.8,2.2,3.6,3,5.6c0.8,2,1.4,4.1,1.6,6.3c0.2,2.2,0,4.5-0.8,6.6c-0.8,2.1-2.3,4-4,5.5
			l0.3-1.9c1.1,2,1.9,3.9,2.7,5.9c0.7,2,1.2,4.2,1.4,6.4c0.2,2.2,0,4.6-1.1,6.8c-0.5,1.1-1.3,2.1-2.1,2.9c-0.9,0.8-1.9,1.4-2.9,2
			l0.4-2.1c0.7,0.8,1.2,1.6,1.7,2.5c0.5,0.8,0.9,1.7,1.3,2.6c0.7,1.8,1.2,3.8,1.1,5.9c-0.1,0.5,0,1-0.2,1.5l-0.3,1.5
			c-0.4,0.9-0.7,1.9-1.3,2.7c-0.5,0.9-1.2,1.6-1.9,2.3c-0.7,0.7-1.5,1.2-2.2,1.9l0.3-1.2c0.9,2,1.7,4.1,2.3,6.2
			c0.6,2.1,1,4.3,1.1,6.5c0.1,2.2-0.3,4.5-1.5,6.4c-0.6,0.9-1.4,1.7-2.4,2.3c-1,0.5-2,0.8-3.1,1c1-0.3,2-0.7,2.9-1.3
			c0.9-0.6,1.6-1.4,2-2.3c1-1.8,1.1-4,0.9-6.1c-0.2-2.1-0.7-4.1-1.4-6.1c-0.7-2-1.5-4-2.5-5.8l-0.3-0.6l0.6-0.6
			c0.6-0.6,1.3-1.1,1.9-1.8c0.5-0.7,1.1-1.3,1.5-2c0.5-0.7,0.7-1.5,1-2.3l0.2-1.2c0.1-0.4,0-0.8,0.1-1.2c0-1.6-0.4-3.3-1.1-4.9
			c-0.7-1.5-1.6-3.1-2.7-4.3l-1.1-1.3l1.5-0.8c0.8-0.4,1.6-0.9,2.2-1.5c0.6-0.6,1.1-1.3,1.5-2.1c0.7-1.6,0.9-3.5,0.8-5.3
			c-0.2-1.9-0.6-3.8-1.3-5.7c-0.7-1.8-1.5-3.7-2.5-5.4l-0.6-1.1l0.9-0.8c1.4-1.2,2.5-2.6,3.1-4.2c0.7-1.6,0.8-3.5,0.7-5.3
			c-0.2-1.8-0.7-3.7-1.4-5.5c-0.7-1.8-1.6-3.6-2.6-5.1l-0.6-0.9l0.7-0.8c1.4-1.6,2.5-3.3,3.1-5.3c0.6-2,0.8-4.1,0.6-6.2
			c-0.2-2.1-0.8-4.2-1.6-6.2c-0.8-2-1.9-4-3.2-5.7l-0.3-0.5l0.2-0.5l1.3-2.7c0.4-0.9,0.7-1.9,1-2.8l0.3-1.4l0.2-0.7
			c0-0.2,0-0.5,0.1-0.7l0.1-1.5l-0.1-1.5c-0.2-1.9-1-3.8-2.2-5.4C576.8,243.2,575.2,241.9,573.3,241.1z"/>
	</g>
	<g>
		<path class="st1" d="M601.9,265.5c1.8,0.2,3.7,0.6,5.4,1.3c1.7,0.7,3.5,1.6,4.8,3.2c0.6,0.8,1,1.8,1.1,2.9c0.1,1.1-0.2,2.1-0.5,3
			c-0.8,1.9-2,3.4-3.3,4.8l-0.2-1.4c1.7,1.1,3.2,2.2,4.6,3.7c1.4,1.4,2.7,3.1,3.3,5.2c0.3,1.1,0.4,2.2,0.2,3.4
			c-0.2,1.1-0.7,2.2-1.3,3.1c-1.3,1.8-3,3-4.7,4.1l0.1-2.3c1.5,1.1,2.8,2.3,4,3.8c1.2,1.4,2.2,3.1,2.6,5.3c0.2,1.1,0.1,2.2-0.3,3.3
			c-0.4,1-1,1.9-1.7,2.7c-1.4,1.4-3.1,2.4-4.8,3.1l0.4-2.5c1.5,1.3,2.7,2.7,3.8,4.3c1.1,1.6,2.1,3.4,2.2,5.7c0,1.1-0.2,2.3-0.8,3.3
			c-0.6,1-1.4,1.8-2.3,2.3c-1.7,1.2-3.6,1.8-5.4,2.2l0.3-2.5c1.6,1,2.9,2.1,4.1,3.5c0.6,0.7,1.1,1.5,1.5,2.4c0.4,0.9,0.5,2,0.3,3.1
			c-0.2,1.1-0.8,2-1.4,2.7c-0.6,0.7-1.4,1.3-2.1,1.8c-1.5,1-3.1,1.6-4.7,2.2l0.3-1.5c1.3,1.5,2.5,3.1,3.4,4.8
			c0.9,1.7,1.7,3.7,1.4,5.8c-0.1,1-0.6,2.1-1.3,2.8c-0.7,0.8-1.6,1.3-2.5,1.6c-1.8,0.8-3.7,1-5.6,1.1c1.9-0.3,3.7-0.8,5.4-1.7
			c1.7-0.8,2.9-2.3,3-4c0.1-1.7-0.7-3.4-1.7-5c-1-1.5-2.2-3-3.4-4.2l-1-1l1.3-0.6c1.5-0.6,2.9-1.3,4.1-2.2c1.2-0.9,2.2-2,2.4-3.1
			c0.2-1.1-0.5-2.4-1.4-3.4c-1-1.1-2.2-2.1-3.5-2.8l-2.8-1.6l3.1-0.8c1.6-0.4,3.2-1,4.5-1.9c1.3-0.9,1.9-2,1.9-3.3
			c0-1.3-0.8-2.8-1.7-4.2c-0.9-1.3-2.1-2.6-3.3-3.7l-1.8-1.6l2.2-0.9c1.5-0.6,2.9-1.4,3.8-2.4c1-1,1.5-2.1,1.3-3.4
			c-0.2-1.3-1-2.7-1.9-3.9c-1-1.2-2.2-2.4-3.4-3.3l-1.7-1.3l1.8-1c1.6-0.9,3-1.9,3.9-3.2c0.9-1.3,1.3-2.8,0.9-4.3
			c-0.4-1.6-1.4-3.1-2.6-4.4c-1.2-1.3-2.6-2.6-4-3.6l-1-0.7l0.8-0.8c1.3-1.2,2.5-2.6,3.2-4.1c0.8-1.5,0.9-3.3-0.1-4.7
			c-0.9-1.4-2.5-2.5-4.1-3.3C605.5,266.6,603.7,265.9,601.9,265.5z"/>
	</g>
	<g>
		<path class="st1" d="M638.7,281.9c1.3,0.1,2.7,0.4,4,0.9c1.3,0.5,2.6,1.1,3.5,2.3c0.5,0.6,0.8,1.4,0.8,2.2
			c0.1,0.8-0.1,1.6-0.4,2.3c-0.6,1.4-1.5,2.5-2.4,3.6l-0.2-1.4c1.3,0.8,2.4,1.6,3.4,2.7c1,1.1,2,2.3,2.5,3.9
			c0.2,0.8,0.3,1.7,0.2,2.6c-0.1,0.9-0.5,1.7-1,2.4c-1,1.4-2.2,2.3-3.5,3.1l0.1-2.3c1.1,0.8,2.1,1.7,3,2.8c0.9,1.1,1.7,2.3,2,4
			c0.1,0.8,0.1,1.7-0.2,2.6c-0.3,0.8-0.8,1.5-1.3,2.1c-1.1,1.1-2.4,1.8-3.6,2.3l0.4-2.5c1.1,1,2,2,2.8,3.2c0.8,1.2,1.5,2.6,1.6,4.4
			c0,0.9-0.2,1.8-0.7,2.6c-0.5,0.8-1.1,1.4-1.8,1.8c-1.3,0.9-2.7,1.3-4.1,1.6l0.3-2.5c1.2,0.7,2.1,1.5,3,2.6
			c0.4,0.5,0.8,1.1,1.1,1.9c0.3,0.7,0.4,1.6,0.2,2.4c-0.2,0.8-0.6,1.5-1.1,2.1c-0.5,0.6-1,1-1.6,1.3c-1.1,0.7-2.3,1.2-3.5,1.6
			l0.3-1.5c1,1.1,1.8,2.3,2.5,3.5c0.7,1.3,1.2,2.7,1,4.3c-0.1,0.8-0.5,1.5-1,2.1c-0.5,0.6-1.2,0.9-1.9,1.2c-1.3,0.5-2.7,0.7-4.1,0.7
			c1.3-0.3,2.7-0.6,3.8-1.3c1.2-0.6,2-1.7,2-2.8c0-1.2-0.5-2.4-1.2-3.5c-0.7-1.1-1.6-2.1-2.5-3l-1-1l1.3-0.6c1-0.5,2.1-1,2.9-1.6
			c0.9-0.6,1.5-1.4,1.6-2.1c0.1-0.7-0.3-1.5-1-2.2c-0.7-0.7-1.6-1.4-2.4-1.9l-2.8-1.6l3.1-0.9c1.2-0.3,2.3-0.7,3.1-1.3
			c0.8-0.6,1.2-1.2,1.2-2c0-0.8-0.5-1.9-1.2-2.8c-0.6-0.9-1.5-1.9-2.3-2.6l-1.8-1.6l2.2-0.9c1-0.4,2-1,2.7-1.6
			c0.7-0.7,0.9-1.3,0.8-2.1c-0.1-0.8-0.6-1.8-1.3-2.6c-0.7-0.9-1.5-1.7-2.4-2.4l-1.7-1.3l1.8-1c1.1-0.6,2.1-1.3,2.7-2.2
			c0.6-0.9,0.9-1.8,0.6-2.8c-0.2-1-0.9-2.1-1.7-3.1c-0.8-0.9-1.8-1.8-2.8-2.6l-1-0.7l0.8-0.7c0.9-0.9,1.8-1.8,2.3-2.9
			c0.6-1,0.7-2.2,0-3.2c-0.6-1-1.7-1.8-2.9-2.4C641.2,282.7,640,282.2,638.7,281.9z"/>
	</g>
	<g>
		<path class="st1" d="M720.5,327c4.8-5.7,9.9-11.2,15-16.7c2.5-2.7,5.2-5.4,7.7-8.1l7.9-8l8-7.9c2.7-2.6,5.4-5.2,8.1-7.7
			c5.4-5.1,10.9-10.2,16.7-15c-4.8,5.7-9.9,11.2-15,16.7c-2.5,2.7-5.2,5.4-7.7,8.1l-7.9,8l-8,7.9c-2.7,2.6-5.4,5.2-8.1,7.7
			C731.7,317.1,726.2,322.1,720.5,327z"/>
	</g>
	<g>
		<path class="st1" d="M716,331.4c4.8-3.3,9.8-6.3,14.9-9.3c2.5-1.5,5.1-2.9,7.6-4.3l7.7-4.2l7.7-4.1c2.6-1.3,5.2-2.7,7.8-3.9
			c5.2-2.6,10.5-5,16-7.2c-4.8,3.3-9.8,6.3-14.9,9.3c-2.5,1.5-5.1,2.9-7.6,4.3l-7.7,4.2l-7.8,4.1c-2.6,1.3-5.2,2.7-7.8,3.9
			C726.7,326.7,721.4,329.2,716,331.4z"/>
	</g>
	<g>
		<path class="st1" d="M713.6,336.2c5.1,5,10,10.1,14.8,15.3c2.4,2.6,4.8,5.3,7.2,7.9l7,8l6.9,8.1c2.3,2.7,4.6,5.4,6.8,8.2
			c4.5,5.5,8.9,11.1,13.1,16.9c-5.1-5-10-10.1-14.9-15.3c-2.4-2.6-4.8-5.3-7.2-7.9l-7-8l-6.9-8.1c-2.3-2.7-4.6-5.4-6.8-8.2
			C722.2,347.6,717.8,342,713.6,336.2z"/>
	</g>
	<g>
		<path class="st1" d="M716,337.2c5.1,2,10,4.3,14.9,6.6c2.5,1.2,4.9,2.4,7.3,3.6l7.2,3.8l7.2,3.9c2.4,1.4,4.7,2.7,7.1,4.1
			c4.7,2.7,9.3,5.6,13.9,8.7c-5.1-2-10-4.3-15-6.6c-2.5-1.2-4.9-2.4-7.3-3.6l-7.2-3.8l-7.2-3.9c-2.4-1.3-4.7-2.7-7.1-4.1
			C725.2,343.1,720.5,340.3,716,337.2z"/>
	</g>
	<g>
		<path class="st1" d="M716.3,332.7c5.4-0.7,10.9-1.1,16.3-1.5c2.7-0.2,5.4-0.3,8.2-0.4l8.2-0.2l8.2-0.1c2.7,0,5.4,0,8.2,0.1
			c5.4,0.1,10.9,0.3,16.3,0.9c-5.4,0.7-10.9,1.1-16.3,1.5c-2.7,0.2-5.4,0.3-8.2,0.4l-8.2,0.2l-8.2,0.1c-2.7,0-5.4,0-8.2-0.1
			C727.2,333.4,721.7,333.2,716.3,332.7z"/>
	</g>
</g>
</svg>
