<?xml version="1.0" encoding="utf-8"?>
<!-- Generator: Adobe Illustrator 22.1.0, SVG Export Plug-In . SVG Version: 6.00 Build 0)  -->
<svg version="1.1" id="Layer_1" xmlns="http://www.w3.org/2000/svg" xmlns:xlink="http://www.w3.org/1999/xlink" x="0px" y="0px"
	 viewBox="0 0 1366 768" style="enable-background:new 0 0 1366 768;" xml:space="preserve">
<style type="text/css">
	.st0{fill:#FF0000;}
	.st1{fill:#FFFFFF;}
	.st2{fill:#FF931E;}
</style>
<g>
	<path class="st0" d="M220.7,352.3c0,0,28.1-62.9,84.2-81.1c8.9-2.9,18.4-4.6,28.7-4.9c22.4-0.5,48.1,6.4,77.2,25
		c24.2,15.5,50.8,39.3,79.6,73.7C490.3,365,315.8,557.7,220.7,352.3z"/>
	<path class="st0" d="M582.4,280.3c0,0,47.3,71.5,0,167.2L483,363.9L582.4,280.3z"/>
	<path class="st0" d="M311.2,270.9l-8.4-25.8c0,0,47.2-27.6,133.1-1.4l-40.7,42.5"/>
	<circle class="st1" cx="276" cy="342.3" r="21.6"/>
	<circle cx="280.2" cy="342.5" r="14.1"/>
	<g>
		<path class="st2" d="M405.6,249.8c-1,2.5-2.3,4.7-3.7,7c-1.4,2.2-2.8,4.4-4.4,6.5c-1.5,2.1-3.2,4.1-4.9,6.1
			c-1.7,1.9-3.5,3.8-5.6,5.6c1-2.5,2.3-4.7,3.7-7c1.4-2.2,2.8-4.4,4.4-6.5c1.5-2.1,3.2-4.1,4.9-6.1
			C401.8,253.4,403.6,251.5,405.6,249.8z"/>
	</g>
	<g>
		<path class="st2" d="M385.3,241.8c-0.2,2.7-0.6,5.2-1.2,7.8c-0.6,2.5-1.2,5.1-2,7.5c-0.8,2.5-1.6,4.9-2.6,7.4
			c-1,2.4-2.1,4.8-3.4,7.1c0.2-2.7,0.6-5.2,1.2-7.8c0.6-2.5,1.2-5.1,2-7.5c0.8-2.5,1.6-4.9,2.6-7.3
			C382.8,246.5,383.9,244.1,385.3,241.8z"/>
	</g>
	<g>
		<path class="st2" d="M362.2,237.6c0.3,2.5,0.4,4.9,0.3,7.3c-0.1,2.4-0.2,4.8-0.5,7.2c-0.3,2.4-0.7,4.8-1.2,7.1
			c-0.5,2.4-1.1,4.7-2,7c-0.3-2.5-0.4-4.9-0.3-7.3c0.1-2.4,0.2-4.8,0.5-7.2c0.3-2.4,0.7-4.8,1.2-7.1
			C360.7,242.3,361.3,240,362.2,237.6z"/>
	</g>
	<g>
		<path class="st2" d="M344.3,237.5c0.6,2.2,0.9,4.5,1.1,6.7c0.2,2.2,0.3,4.5,0.2,6.7c0,2.2-0.1,4.5-0.4,6.7
			c-0.3,2.2-0.6,4.5-1.3,6.7c-0.6-2.2-0.9-4.5-1.1-6.7c-0.2-2.2-0.3-4.5-0.2-6.7c0-2.2,0.2-4.5,0.4-6.7
			C343.3,241.9,343.6,239.7,344.3,237.5z"/>
	</g>
	<g>
		<path class="st2" d="M322.2,244.1c1.1,1.4,1.9,3,2.6,4.5c0.7,1.6,1.3,3.2,1.8,4.8c0.5,1.6,0.9,3.3,1.2,5c0.3,1.7,0.5,3.4,0.4,5.2
			c-1.1-1.4-1.9-3-2.6-4.5c-0.7-1.6-1.3-3.2-1.8-4.8c-0.5-1.6-0.9-3.3-1.2-5C322.4,247.7,322.2,245.9,322.2,244.1z"/>
	</g>
	<g>
		<path class="st2" d="M597.1,366.9c-8.6,0.4-17.2,0.5-25.7,0.4c-4.3,0-8.6-0.1-12.9-0.1l-12.8-0.3l-12.8-0.4
			c-4.3-0.2-8.6-0.4-12.8-0.6c-8.6-0.5-17.1-1-25.7-1.9c8.6-0.4,17.2-0.5,25.7-0.4c4.3,0,8.6,0.1,12.9,0.1l12.8,0.3l12.8,0.5
			c4.3,0.2,8.6,0.4,12.8,0.6C580,365.4,588.6,366,597.1,366.9z"/>
	</g>
	<g>
		<path class="st2" d="M595.8,340.8c-8.2,2.3-16.5,4.4-24.8,6.4c-4.1,1-8.3,1.9-12.5,2.9l-12.5,2.7l-12.5,2.5
			c-4.2,0.8-8.4,1.6-12.6,2.4c-8.4,1.5-16.8,2.9-25.3,4.1c8.2-2.3,16.5-4.4,24.8-6.4c4.1-1,8.3-1.9,12.5-2.9l12.5-2.7l12.5-2.5
			c4.2-0.8,8.4-1.6,12.6-2.4C578.9,343.4,587.3,341.9,595.8,340.8z"/>
	</g>
	<g>
		<path class="st2" d="M593.3,390c-8.5-1.1-16.9-2.6-25.3-4.1c-4.2-0.7-8.4-1.6-12.6-2.4l-12.5-2.5l-12.5-2.7
			c-4.2-1-8.3-1.8-12.5-2.9c-8.3-2-16.6-4-24.8-6.4c8.5,1.1,16.9,2.5,25.3,4.1c4.2,0.7,8.4,1.6,12.6,2.4l12.5,2.5l12.5,2.7
			c4.2,0.9,8.3,1.8,12.5,2.9C576.8,385.6,585.1,387.7,593.3,390z"/>
	</g>
	<g>
		<path class="st2" d="M583.7,310.3c-7.1,4.7-14.4,9.1-21.8,13.5c-3.7,2.2-7.4,4.3-11,6.5l-11.1,6.3l-11.2,6.2
			c-3.8,2-7.5,4.1-11.3,6c-7.6,4-15.2,7.8-22.9,11.4c7.1-4.7,14.4-9.1,21.8-13.5c3.7-2.2,7.4-4.3,11-6.5l11.1-6.3l11.2-6.2
			c3.8-2,7.5-4.1,11.3-6C568.3,317.7,575.9,313.9,583.7,310.3z"/>
	</g>
	<g>
		<path class="st2" d="M585,421.9c-7.7-3.6-15.4-7.5-22.9-11.5c-3.8-2-7.5-4-11.3-6l-11.2-6.2l-11.1-6.3c-3.7-2.2-7.4-4.3-11-6.5
			c-7.3-4.3-14.6-8.8-21.8-13.5c7.7,3.6,15.4,7.5,22.9,11.4c3.8,2,7.5,4,11.3,6l11.2,6.2l11.1,6.3c3.7,2.1,7.4,4.3,11,6.5
			C570.5,412.8,577.8,417.2,585,421.9z"/>
	</g>
	<g>
		<path class="st2" d="M317.7,286.1c3,1.1,6,2.8,8.2,5.3c1.1,1.2,2,2.7,2.5,4.3c0.5,1.6,0.7,3.4,0.5,5c-0.2,1.7-0.7,3.3-1.4,4.9
			c-0.3,0.8-0.7,1.5-1.1,2.2c-0.5,0.7-0.8,1.4-1.3,2.1c-1.9,2.7-4.2,5.2-6.5,7.4l0.1-1.6c1.9,2.1,3.5,4.4,5,6.9
			c1.4,2.5,2.5,5.1,3,8.1c0.2,1.5,0.3,3,0.1,4.5c-0.2,1.5-0.7,3-1.5,4.4c-0.4,0.7-0.9,1.3-1.3,1.9c-0.5,0.5-1,1.1-1.6,1.6
			c-1.1,1-2.4,1.7-3.7,2.4l-0.1-2.7c1.5,0.6,2.7,1.3,3.9,2.3c1.2,0.9,2.2,2,3.1,3.3c0.9,1.3,1.5,2.7,1.8,4.2
			c0.3,1.5,0.3,3.1,0.1,4.5c-0.5,3-1.7,5.6-3.2,8c-1.5,2.4-3.2,4.6-5.1,6.6l0-1.9c1,1.2,1.7,2.4,2.4,3.7c0.7,1.3,1.3,2.6,1.8,4
			c1,2.8,1.5,5.8,1.1,8.8c-0.4,3-1.8,5.8-3.8,8.1c-2,2.2-4.3,4-6.8,5.3l0.3-1.4c1.5,2.3,2.8,4.6,3.8,7.1c1,2.5,1.8,5.1,1.7,7.9
			c0,1.4-0.4,2.8-1,4c-0.7,1.2-1.7,2.2-2.9,2.9c-2.4,1.3-5.1,1.7-7.7,1.7c2.6-0.3,5.2-0.9,7.3-2.3c1.1-0.7,1.9-1.6,2.4-2.7
			c0.5-1.1,0.7-2.3,0.7-3.6c-0.1-2.5-1-4.9-2-7.2c-1.1-2.3-2.4-4.5-3.9-6.5l-0.6-0.9l0.9-0.6c2.3-1.4,4.4-3.1,6.1-5.1
			c1.7-2,2.7-4.4,3-6.9c0.3-2.5-0.2-5.1-1.1-7.6c-0.9-2.4-2.3-4.8-3.9-6.8l-0.8-1l0.8-0.9c1.7-2,3.4-4,4.7-6.2
			c1.3-2.2,2.4-4.6,2.7-6.9c0.3-2.4-0.1-4.7-1.4-6.7c-0.6-1-1.5-1.9-2.4-2.6c-0.9-0.7-2.1-1.4-3.1-1.8l-2.9-1.2l2.8-1.5
			c1.1-0.6,2.2-1.2,3.2-2c1-0.8,1.8-1.7,2.4-2.7c0.6-1,1-2.1,1.2-3.3c0.2-1.2,0.2-2.4,0-3.7c-0.4-2.5-1.3-5-2.6-7.3
			c-1.2-2.3-2.7-4.6-4.4-6.6l-0.7-0.9l0.8-0.7c2.4-2.1,4.6-4.4,6.5-6.9c1.9-2.5,3.5-5.3,4-8.3c0.3-1.5,0.2-3.1-0.1-4.6
			c-0.4-1.5-1.1-2.9-2.1-4.1c-1-1.3-2.2-2.3-3.4-3.3C320.5,287.6,319.2,286.8,317.7,286.1z"/>
	</g>
	<g>
		<path class="st2" d="M343.8,275.3c3.9,1.2,7.6,3.1,10.6,6c1.5,1.4,2.7,3.2,3.5,5.1c0.8,2,1,4.2,0.7,6.3c-0.3,2.1-1,4.1-2,6
			c-0.2,0.5-0.5,0.9-0.8,1.4c-0.3,0.4-0.5,0.9-0.8,1.3c-0.6,0.8-1.2,1.7-1.9,2.5c-2.6,3.2-5.6,6.1-8.8,8.7l0.1-1.7
			c2.5,2.5,4.7,5.2,6.6,8.1c1.9,2.9,3.4,6.2,4.1,9.8c0.3,1.8,0.4,3.7,0,5.6c-0.3,1.9-1.1,3.7-2.2,5.2c-1.1,1.5-2.5,2.9-4,3.9
			c-0.7,0.6-1.5,1-2.3,1.5c-0.8,0.4-1.6,0.8-2.4,1.2l-0.1-2.7c1.8,0.7,3.3,1.4,4.8,2.5c1.5,1,2.9,2.2,4,3.7c1.2,1.5,2.1,3.2,2.5,5
			c0.5,1.8,0.5,3.8,0.2,5.6c-0.6,3.7-2.3,6.9-4.3,9.7c-2,2.9-4.3,5.4-6.7,7.8l0-2c1.3,1.4,2.3,2.8,3.3,4.3c1,1.5,1.8,3.1,2.5,4.8
			c1.4,3.3,2.1,7.1,1.4,10.8c-0.6,3.7-2.7,7.1-5.3,9.6c-2.6,2.5-5.6,4.5-8.8,6l0.3-1.5c2.1,2.7,3.8,5.5,5.3,8.6
			c0.7,1.5,1.3,3.1,1.7,4.7c0.4,1.6,0.7,3.4,0.5,5.1c-0.1,1.7-0.7,3.5-1.8,4.8c-1,1.4-2.5,2.4-4,3.1c-3.1,1.4-6.4,1.7-9.7,1.8
			c3.3-0.3,6.6-0.9,9.4-2.4c1.4-0.7,2.7-1.7,3.6-3c0.9-1.3,1.3-2.8,1.3-4.4c0.1-3.1-1.1-6.2-2.6-9.1c-1.5-2.8-3.3-5.6-5.3-8
			l-0.8-0.9l1.1-0.6c3-1.6,5.8-3.5,8.1-5.8c1.2-1.2,2.1-2.5,2.9-3.9c0.8-1.4,1.3-2.9,1.5-4.5c0.5-3.1-0.1-6.4-1.4-9.4
			c-1.3-3-3.2-5.9-5.3-8.2l-1-1l1-1c2.3-2.3,4.5-4.8,6.3-7.5c1.8-2.6,3.3-5.6,3.8-8.5c0.5-3-0.2-6-2.1-8.3c-1.8-2.3-4.7-4.2-7.5-5.2
			L340,345l3.2-1.4c3-1.3,5.7-3.1,7.5-5.5c1.9-2.4,2.4-5.6,1.9-8.6c-0.5-3.1-1.9-6.1-3.6-8.9c-1.7-2.8-3.8-5.5-6-7.9l-0.9-0.9
			l0.9-0.8c3.1-2.5,6.1-5.2,8.7-8.2c2.6-3,4.8-6.4,5.5-10.2c0.4-1.9,0.2-3.9-0.4-5.7c-0.6-1.8-1.7-3.5-3.1-5
			C351.1,278.9,347.6,276.8,343.8,275.3z"/>
	</g>
	<g>
		<path class="st2" d="M375.6,292.2c3.6,0.9,7.1,2.3,10.2,4.5c1.5,1.1,2.9,2.5,3.9,4.2c1,1.7,1.3,3.8,1.1,5.7
			c-0.3,2-1.1,3.8-2.2,5.4c-1.1,1.6-2.3,3.1-3.6,4.4c-2.7,2.7-5.7,5-8.7,7.2l0.1-1.8c2.5,2,4.6,4.2,6.6,6.7c1.9,2.5,3.6,5.3,4.3,8.6
			c0.3,1.7,0.3,3.5-0.2,5.2c-0.5,1.7-1.5,3.2-2.6,4.5c-2.4,2.4-5.4,3.9-8.3,5l-0.1-2.8c1.6,0.5,3.1,1.1,4.5,1.8
			c1.4,0.8,2.8,1.7,4,2.8c1.2,1.1,2.3,2.6,2.9,4.3c0.6,1.7,0.7,3.5,0.4,5.2c-0.3,1.7-1,3.3-1.8,4.7c-0.8,1.4-1.8,2.7-2.8,3.9
			c-2.1,2.4-4.4,4.5-6.8,6.4l0-2.2c1.3,1.1,2.3,2.3,3.3,3.6c1,1.3,1.9,2.7,2.6,4.1c0.7,1.5,1.3,3.1,1.6,4.8c0.3,1.7,0.2,3.4-0.2,5.1
			c-0.4,1.7-1.3,3.2-2.3,4.5c-1,1.3-2.2,2.4-3.5,3.4c-2.6,2-5.5,3.4-8.4,4.5l0.3-1.6c2.1,2.3,4,4.7,5.5,7.4c0.8,1.3,1.4,2.8,1.8,4.3
			c0.4,1.5,0.6,3.1,0.3,4.7c-0.3,1.6-1.3,3.1-2.5,4c-1.2,1-2.7,1.6-4.1,2.1c-2.9,0.9-6,1.1-9,1.1c3-0.3,6-0.7,8.8-1.7
			c1.4-0.5,2.7-1.2,3.8-2.2c1.1-0.9,1.8-2.2,2-3.6c0.2-1.4,0-2.8-0.5-4.1c-0.5-1.3-1.1-2.6-1.9-3.9c-1.5-2.5-3.4-4.8-5.5-6.8l-1-1
			l1.3-0.6c2.8-1.2,5.4-2.6,7.7-4.5c1.1-0.9,2.2-1.9,3-3.1c0.8-1.1,1.4-2.4,1.7-3.7c0.7-2.6,0-5.5-1.3-8c-1.3-2.5-3.3-4.9-5.4-6.8
			l-1.3-1.1l1.3-1.1c2.3-1.9,4.5-3.9,6.3-6.1c1-1.1,1.8-2.3,2.5-3.5c0.7-1.2,1.2-2.5,1.4-3.8c0.5-2.5-0.5-5-2.4-6.8
			c-1.9-1.8-4.6-3.2-7.2-4l-4.3-1.3l4.1-1.5c2.7-1,5.3-2.3,7.3-4.2c0.9-1,1.7-2.1,2-3.3c0.4-1.2,0.4-2.5,0.2-3.9
			c-0.5-2.7-2-5.3-3.7-7.6c-1.7-2.3-3.8-4.5-6-6.5l-1.1-1l1.2-0.8c3.1-2,6-4.2,8.7-6.6c1.3-1.2,2.5-2.6,3.6-4c1-1.5,1.8-3,2.2-4.7
			c0.3-1.7,0.1-3.5-0.6-5c-0.8-1.6-2-2.9-3.4-4.1c-1.4-1.2-3-2.1-4.6-2.9C379,293.5,377.3,292.8,375.6,292.2z"/>
	</g>
	<g>
		<path class="st2" d="M405.2,302.3c3.1,0.7,6.1,1.9,8.7,3.8c1.3,0.9,2.5,2.1,3.4,3.6c0.9,1.5,1.2,3.3,0.9,5c-0.2,1.7-1,3.3-1.9,4.7
			c-0.9,1.4-2,2.7-3.1,3.8c-2.3,2.3-4.8,4.3-7.5,6.1l0.1-1.8c2.1,1.7,4,3.6,5.7,5.7c1.7,2.1,3.2,4.5,3.8,7.4c0.3,1.4,0.3,3-0.2,4.5
			c-0.4,1.5-1.3,2.8-2.3,3.9c-2.1,2.1-4.7,3.3-7.2,4.3l-0.1-2.8c1.4,0.4,2.6,0.9,3.9,1.6c1.2,0.7,2.4,1.4,3.5,2.4
			c1.1,1,2,2.2,2.6,3.7c0.6,1.5,0.7,3.1,0.4,4.6c-0.6,3-2.2,5.4-4,7.4c-1.8,2.1-3.8,3.8-5.8,5.5l0-2.2c1.1,1,2,2,2.9,3.1
			c0.9,1.1,1.6,2.3,2.3,3.6c0.6,1.3,1.1,2.7,1.3,4.1c0.2,1.5,0.2,3-0.2,4.4c-0.4,1.5-1.1,2.8-2,3.9c-0.9,1.1-2,2.1-3.1,2.9
			c-2.2,1.7-4.7,2.9-7.2,3.8l0.3-1.6c1.8,2,3.4,4,4.7,6.4c0.6,1.2,1.2,2.4,1.6,3.7c0.4,1.3,0.5,2.7,0.2,4.1
			c-0.3,1.4-1.1,2.6-2.2,3.5c-1.1,0.8-2.3,1.4-3.6,1.7c-2.5,0.7-5.1,0.9-7.7,0.9c2.5-0.2,5.1-0.7,7.5-1.5c1.2-0.5,2.3-1,3.2-1.8
			c0.9-0.8,1.5-1.9,1.7-3c0.3-2.3-0.8-4.7-2.1-6.8c-1.3-2.1-3-4-4.7-5.8l-1-1l1.4-0.6c2.3-1.1,4.6-2.2,6.6-3.8
			c1-0.8,1.8-1.6,2.5-2.6c0.7-1,1.2-2,1.5-3.1c0.6-2.2,0-4.6-1.1-6.7c-1.1-2.1-2.8-4.1-4.6-5.7l-1.3-1.1l1.3-1.1
			c1.9-1.6,3.8-3.3,5.4-5.2c0.8-0.9,1.5-1.9,2.1-2.9c0.6-1,1-2.1,1.2-3.1c0.4-2.1-0.4-4.1-2-5.6c-1.6-1.5-3.9-2.7-6.1-3.3l-4.3-1.3
			l4.2-1.5c2.3-0.8,4.5-2,6.2-3.5c0.8-0.8,1.4-1.7,1.7-2.7c0.3-1,0.4-2.1,0.2-3.2c-0.4-2.2-1.6-4.4-3.1-6.4c-1.5-2-3.3-3.9-5.1-5.5
			l-1.2-1l1.2-0.8c2.6-1.7,5.1-3.5,7.4-5.6c2.2-2.1,4.3-4.5,4.9-7.4c0.3-1.4,0.1-2.9-0.5-4.2c-0.7-1.3-1.7-2.5-2.9-3.5
			c-1.2-1-2.5-1.8-3.9-2.5C408.2,303.4,406.7,302.8,405.2,302.3z"/>
	</g>
	<g>
		<path class="st2" d="M435.8,326.9c1.6,0.6,3.2,1.6,4.3,3.1c1.1,1.5,1.6,3.4,1.5,5.3c-0.1,0.5-0.1,1-0.2,1.4l-0.4,1.3
			c-0.1,0.5-0.4,0.8-0.5,1.3c-0.2,0.4-0.4,0.9-0.6,1.2c-0.5,0.8-0.9,1.6-1.5,2.3l-1.7,2.1l0.1-1.4c1,1.3,1.8,2.6,2.5,4
			c0.7,1.4,1.3,2.9,1.5,4.6c0.3,1.6,0.2,3.5-0.6,5.2c-0.8,1.7-2.2,3-3.6,3.8l-0.2-2.6c0.9,0.4,1.6,0.9,2.2,1.5
			c0.6,0.6,1.2,1.3,1.6,2.1c0.9,1.6,1.1,3.5,0.8,5.1c-0.1,0.9-0.4,1.6-0.6,2.4c-0.3,0.7-0.6,1.5-1,2.2c-0.4,0.7-0.8,1.4-1.2,2
			l-1.3,1.9l0-1.7c1,1.5,1.6,2.9,2.1,4.5c0.5,1.6,0.7,3.3,0.5,5c-0.1,0.4-0.1,0.9-0.2,1.3l-0.4,1.2c-0.4,0.8-0.7,1.6-1.3,2.2
			c-0.5,0.7-1.1,1.3-1.7,1.9c-0.6,0.6-1.3,1-2,1.5l0.3-1.3c0.7,1.3,1.3,2.6,1.8,4c0.5,1.4,0.8,2.8,0.8,4.3c0,0.8-0.1,1.5-0.4,2.2
			c-0.3,0.7-0.8,1.4-1.4,1.8c-0.6,0.5-1.3,0.8-2,0.9c-0.7,0.2-1.4,0.2-2.1,0.2c1.4-0.2,2.8-0.7,3.7-1.6c0.9-0.9,1.2-2.3,1.1-3.5
			c-0.1-1.3-0.6-2.6-1.1-3.8c-0.5-1.2-1.2-2.5-1.9-3.5l-0.4-0.7l0.7-0.7c0.5-0.5,1.1-0.9,1.6-1.4c0.5-0.5,0.9-1,1.3-1.6
			c0.4-0.5,0.6-1.2,0.9-1.8l0.2-1c0.1-0.3,0.1-0.7,0.1-1c0.1-1.3-0.1-2.7-0.6-4c-0.4-1.3-1.1-2.6-1.8-3.6l-0.6-0.8l0.6-0.9l1.2-1.7
			c0.4-0.6,0.7-1.2,1-1.8c0.3-0.6,0.5-1.2,0.8-1.8c0.1-0.6,0.4-1.2,0.4-1.8c0.2-1.2,0-2.4-0.5-3.4c-0.2-0.5-0.6-1-1-1.4
			c-0.2-0.2-0.4-0.4-0.7-0.6c-0.2-0.2-0.5-0.3-0.7-0.4l-2.4-1.3l2.2-1.3c1.1-0.6,2-1.5,2.5-2.5c0.5-1,0.7-2.3,0.5-3.6
			c-0.2-1.3-0.6-2.6-1.1-3.9c-0.5-1.3-1.3-2.6-2-3.7l-0.5-0.8l0.6-0.7l1.7-1.9c0.6-0.6,1-1.3,1.5-2c0.3-0.3,0.4-0.7,0.6-1.1
			c0.2-0.4,0.4-0.7,0.6-1.1l0.4-1.1c0.2-0.4,0.2-0.8,0.3-1.2c0.3-1.6,0.1-3.2-0.7-4.7C438.6,329,437.3,327.8,435.8,326.9z"/>
	</g>
</g>
</svg>
