<?xml version="1.0" encoding="utf-8"?>
<!-- Generator: Adobe Illustrator 22.1.0, SVG Export Plug-In . SVG Version: 6.00 Build 0)  -->
<svg version="1.1" id="Layer_1" xmlns="http://www.w3.org/2000/svg" xmlns:xlink="http://www.w3.org/1999/xlink" x="0px" y="0px"
	 viewBox="0 0 1366 768" style="enable-background:new 0 0 1366 768;" xml:space="preserve">
<style type="text/css">
	.st0{fill:#FF0000;}
	.st1{fill:#FFFFFF;}
	.st2{fill:#FF931E;}
</style>
<path class="st0" d="M536.5,369c0,0-23.2-51.9-69.5-66.9c-7.3-2.4-15.2-3.8-23.7-4c-18.5-0.4-39.7,5.2-63.7,20.6
	c-20,12.8-41.9,32.4-65.7,60.9C314,379.5,458,538.5,536.5,369z"/>
<path class="st0" d="M238,309.5c0,0-39,59,0,138l82-69L238,309.5z"/>
<path class="st0" d="M461.8,301.7l6.9-21.3c0,0-38.9-22.8-109.9-1.2l33.6,35.1"/>
<circle class="st1" cx="490.8" cy="360.7" r="17.8"/>
<circle cx="487.3" cy="360.9" r="11.7"/>
<g>
	<path class="st2" d="M383.9,284.3c1.8,1.3,3.3,2.9,4.8,4.5c1.5,1.6,2.8,3.3,4.1,5c1.3,1.7,2.5,3.5,3.6,5.4c1.1,1.9,2.1,3.8,2.9,5.9
		c-1.8-1.3-3.3-2.9-4.8-4.5c-1.5-1.6-2.8-3.3-4.1-5c-1.3-1.7-2.5-3.5-3.6-5.4C385.7,288.3,384.7,286.4,383.9,284.3z"/>
</g>
<g>
	<path class="st2" d="M400.7,277.8c1.2,1.9,2.2,3.8,3,5.8c0.8,2,1.6,4,2.2,6c0.6,2,1.2,4.1,1.6,6.2c0.4,2.1,0.7,4.3,0.8,6.5
		c-1.2-1.9-2.2-3.8-3-5.8c-0.8-2-1.6-4-2.2-6c-0.6-2-1.2-4.1-1.6-6.2C401,282.1,400.7,280,400.7,277.8z"/>
</g>
<g>
	<path class="st2" d="M419.7,274.3c0.9,1.9,1.4,3.8,1.9,5.8c0.5,1.9,0.8,3.9,1,5.9c0.2,2,0.4,4,0.4,5.9c0,2-0.1,4-0.5,6
		c-0.9-1.9-1.4-3.8-1.9-5.8c-0.5-1.9-0.8-3.9-1-5.9c-0.2-2-0.4-4-0.4-5.9C419.2,278.4,419.3,276.4,419.7,274.3z"/>
</g>
<g>
	<path class="st2" d="M434.5,274.2c0.6,1.8,1,3.7,1.2,5.5c0.2,1.8,0.4,3.7,0.4,5.5c0,1.8-0.1,3.7-0.3,5.5c-0.2,1.8-0.5,3.7-1.1,5.6
		c-0.6-1.8-1-3.7-1.2-5.5c-0.2-1.8-0.4-3.7-0.4-5.5c0-1.8,0.1-3.7,0.3-5.5C433.6,277.9,433.9,276,434.5,274.2z"/>
</g>
<g>
	<path class="st2" d="M452.7,279.7c0.2,1.5,0.1,3-0.1,4.4c-0.2,1.4-0.5,2.8-0.9,4.1c-0.4,1.3-0.9,2.7-1.6,3.9
		c-0.6,1.3-1.4,2.5-2.4,3.7c-0.2-1.5-0.1-3,0.1-4.4c0.2-1.4,0.5-2.8,0.9-4.1c0.4-1.3,0.9-2.7,1.6-3.9
		C450.9,282.1,451.7,280.8,452.7,279.7z"/>
</g>
<g>
	<path class="st2" d="M225.9,381c7-0.8,14.1-1.4,21.2-1.8c3.5-0.2,7.1-0.4,10.6-0.6l10.6-0.4l10.6-0.2c3.5,0,7.1-0.1,10.6-0.1
		c7.1,0,14.1,0.1,21.2,0.6c-7,0.8-14.1,1.4-21.2,1.8c-3.5,0.2-7.1,0.4-10.6,0.6l-10.6,0.4l-10.6,0.2c-3.5,0-7.1,0.1-10.6,0.1
		C240,381.5,232.9,381.4,225.9,381z"/>
</g>
<g>
	<path class="st2" d="M226.9,359.5c7,0.8,14,1.9,20.9,3.2c3.5,0.6,6.9,1.3,10.4,1.9l10.4,2.1l10.3,2.2c3.4,0.8,6.9,1.5,10.3,2.4
		c6.8,1.6,13.7,3.4,20.4,5.4c-7-0.8-14-1.9-20.9-3.2c-3.5-0.6-6.9-1.3-10.4-1.9l-10.3-2.1l-10.3-2.2c-3.4-0.8-6.9-1.5-10.3-2.4
		C240.5,363.3,233.7,361.5,226.9,359.5z"/>
</g>
<g>
	<path class="st2" d="M229,400.1c6.8-2,13.6-3.8,20.4-5.4c3.4-0.9,6.9-1.6,10.3-2.4L270,390l10.3-2.1c3.5-0.6,6.9-1.3,10.4-1.9
		c6.9-1.2,13.9-2.3,20.9-3.2c-6.8,2-13.6,3.8-20.4,5.4c-3.4,0.9-6.9,1.6-10.3,2.4l-10.3,2.2l-10.4,2.1c-3.5,0.6-6.9,1.3-10.4,1.9
		C243,398.1,236,399.2,229,400.1z"/>
</g>
<g>
	<path class="st2" d="M236.9,334.3c6.4,2.9,12.7,6,19,9.3c3.1,1.6,6.2,3.3,9.3,4.9l9.3,5.1l9.2,5.2c3,1.8,6.1,3.5,9.1,5.4
		c6,3.6,12,7.3,17.9,11.3c-6.4-2.9-12.8-6-19-9.3c-3.1-1.6-6.2-3.3-9.3-4.9l-9.3-5.1l-9.2-5.2c-3-1.8-6.1-3.5-9.1-5.4
		C248.8,341.9,242.8,338.2,236.9,334.3z"/>
</g>
<g>
	<path class="st2" d="M235.9,426.4c5.8-4,11.8-7.7,17.9-11.3c3-1.8,6.1-3.6,9.1-5.4l9.2-5.2l9.3-5.1c3.1-1.6,6.2-3.3,9.3-4.9
		c6.3-3.2,12.6-6.4,19-9.3c-5.8,4-11.8,7.7-17.9,11.3c-3,1.8-6.1,3.6-9.1,5.4l-9.2,5.2l-9.3,5.1c-3.1,1.6-6.2,3.3-9.3,4.9
		C248.6,420.4,242.3,423.5,235.9,426.4z"/>
</g>
<g>
	<path class="st2" d="M456.4,314.3c-2.4,1.1-4.6,2.7-6.2,4.8c-0.8,1-1.4,2.2-1.7,3.4c-0.3,1.2-0.3,2.5-0.1,3.7
		c0.5,2.5,1.7,4.8,3.3,6.8c1.6,2,3.4,3.9,5.4,5.6l0.8,0.7l-0.7,0.9c-1.4,1.6-2.6,3.5-3.6,5.4c-1,1.9-1.8,3.9-2.1,5.9
		c-0.3,2,0,4,1,5.6c1,1.6,2.7,2.9,4.5,3.8l2.8,1.4l-3,1.2c-0.8,0.3-1.7,0.9-2.5,1.5c-0.8,0.6-1.4,1.3-1.9,2.1
		c-1,1.6-1.4,3.4-1.1,5.4c0.3,1.9,1.1,3.8,2.2,5.6c1.1,1.8,2.4,3.5,3.8,5.1l0.8,0.9l-0.8,1c-1.3,1.6-2.4,3.5-3.2,5.5
		c-0.8,2-1.2,4.1-0.9,6.1c0.2,2,1,4,2.4,5.6c1.3,1.6,3.1,3,5,4.2l0.9,0.6l-0.6,0.9c-1.2,1.6-2.4,3.5-3.3,5.4
		c-0.9,1.9-1.6,3.9-1.7,5.9c0,1,0.1,2,0.5,2.9c0.4,0.9,1.1,1.7,2,2.3c1.7,1.1,3.9,1.7,6,1.9c-2.1,0-4.4-0.3-6.4-1.4
		c-1-0.5-1.9-1.4-2.4-2.4c-0.6-1-0.8-2.2-0.9-3.3c-0.1-2.3,0.6-4.5,1.4-6.6c0.8-2.1,1.9-4,3.1-5.9l0.3,1.4c-2.1-1.1-4.1-2.6-5.7-4.4
		c-1.6-1.8-2.8-4.2-3.2-6.8c-0.4-2.5,0.1-5.1,0.9-7.4c0.8-2.3,2-4.4,3.6-6.4l0,1.9c-1.5-1.7-3-3.5-4.2-5.5c-1.2-2-2.2-4.2-2.7-6.7
		c-0.2-1.2-0.2-2.6,0.1-3.8c0.3-1.3,0.8-2.5,1.5-3.6c0.7-1.1,1.6-2,2.6-2.8c1-0.8,2-1.4,3.3-1.9l-0.1,2.7c-1.1-0.6-2.2-1.2-3.1-2
		c-0.5-0.4-0.9-0.9-1.4-1.3c-0.4-0.5-0.8-1-1.1-1.6c-0.7-1.1-1.1-2.4-1.3-3.7c-0.2-1.3-0.1-2.6,0.1-3.8c0.4-2.5,1.4-4.7,2.5-6.7
		c1.2-2.1,2.5-3.9,4.1-5.7l0.1,1.6c-2-1.9-3.8-3.9-5.4-6.2c-1.6-2.3-2.9-4.8-3.2-7.7c-0.2-1.4,0-2.9,0.4-4.2
		c0.4-1.3,1.2-2.6,2.1-3.6C451.5,316.6,453.9,315.2,456.4,314.3z"/>
</g>
<g>
	<path class="st2" d="M434.9,305.4c-3.1,1.2-6,3-8.3,5.4c-1.1,1.2-2,2.6-2.5,4.1c-0.5,1.5-0.6,3.1-0.3,4.7c0.6,3.1,2.4,5.9,4.5,8.4
		c2.1,2.5,4.6,4.6,7.2,6.7l0.9,0.7l-0.9,0.9c-1.8,1.9-3.5,4.2-4.9,6.5c-1.4,2.3-2.5,4.8-2.9,7.3c-0.4,2.5,0,5,1.5,6.9
		c1.5,2,3.7,3.4,6.1,4.5l3.2,1.4l-3.4,1.3c-2.3,0.9-4.6,2.3-6,4.2c-1.5,1.9-2.1,4.3-1.7,6.7c0.4,2.4,1.6,4.8,3.1,7
		c1.5,2.2,3.3,4.2,5.2,6.1l1,1l-1,1c-1.8,1.9-3.3,4.3-4.4,6.7c-1,2.4-1.6,5.1-1.2,7.6c0.4,2.5,1.7,4.9,3.5,6.8
		c1.8,1.9,4.2,3.5,6.6,4.8l1.1,0.6l-0.8,0.9c-1.7,2-3.2,4.2-4.4,6.6c-1.2,2.3-2.2,4.9-2.2,7.4c0,1.3,0.4,2.5,1.1,3.6
		c0.7,1.1,1.8,1.9,2.9,2.5c2.4,1.2,5.1,1.8,7.8,2c-2.7-0.1-5.5-0.3-8-1.5c-1.3-0.6-2.5-1.4-3.4-2.5c-0.9-1.1-1.4-2.6-1.5-4
		c-0.2-2.9,0.7-5.7,1.8-8.2c1.2-2.5,2.6-4.9,4.3-7.1l0.3,1.5c-2.6-1.3-5.2-2.8-7.3-5c-2.2-2.1-3.9-4.9-4.4-8c-0.5-3.1,0-6.3,1.2-9.1
		c0.6-1.4,1.3-2.7,2.1-4c0.8-1.3,1.7-2.4,2.7-3.6l0,2c-2-2-3.9-4.1-5.6-6.5c-1.7-2.4-3.1-5.1-3.6-8.1c-0.3-1.5-0.2-3.2,0.2-4.7
		c0.4-1.6,1.2-3,2.1-4.2c1-1.2,2.1-2.3,3.4-3.1c1.3-0.9,2.5-1.5,4.1-2.1l-0.1,2.7c-0.7-0.3-1.3-0.6-2-1c-0.6-0.4-1.3-0.7-1.9-1.2
		c-1.3-0.9-2.4-2-3.3-3.3c-0.9-1.3-1.6-2.8-1.9-4.4c-0.3-1.6-0.2-3.2,0-4.7c0.6-3,1.9-5.7,3.4-8.2c1.6-2.5,3.4-4.7,5.5-6.7l0.1,1.7
		c-2.6-2.2-5.1-4.6-7.2-7.3c-1.1-1.3-2-2.8-2.8-4.3c-0.8-1.5-1.4-3.2-1.6-5c-0.2-1.8,0-3.6,0.6-5.2c0.7-1.6,1.7-3.1,3-4.3
		C428.6,307.9,431.7,306.4,434.9,305.4z"/>
</g>
<g>
	<path class="st2" d="M408.7,319.4c-1.5,0.5-2.9,1.1-4.2,1.8c-1.3,0.7-2.6,1.5-3.8,2.5c-1.1,1-2.1,2.1-2.8,3.4
		c-0.6,1.3-0.8,2.7-0.5,4.1c0.6,2.7,2.6,5.1,4.7,7.1c2.2,2,4.6,3.8,7.1,5.4l1.2,0.8l-1.1,1c-1.8,1.6-3.5,3.4-4.9,5.3
		c-1.4,1.9-2.6,4-3,6.2c-0.2,1.1-0.2,2.1,0.2,3.1c0.3,1,0.9,1.8,1.6,2.6c1.6,1.5,3.7,2.6,5.9,3.4l4.2,1.5l-4.3,1.3
		c-2.1,0.6-4.3,1.8-5.9,3.2c-1.6,1.5-2.3,3.4-1.9,5.4c0.4,2,1.6,4.1,3.2,5.8c1.5,1.8,3.3,3.4,5.2,5l1.3,1.1l-1.3,1.1
		c-1.7,1.5-3.3,3.5-4.4,5.5c-1.1,2.1-1.6,4.3-1.1,6.5c0.3,1.1,0.7,2.1,1.4,3c0.7,0.9,1.5,1.8,2.4,2.5c1.9,1.5,4.1,2.7,6.3,3.7
		l1.3,0.6l-1,1c-1.7,1.7-3.3,3.5-4.5,5.6c-1.2,2-2.3,4.3-2,6.5c0.2,1.1,0.7,2.1,1.6,2.9c0.9,0.8,1.9,1.3,3.1,1.8
		c2.3,0.8,4.7,1.2,7.2,1.5c-2.5,0-5-0.2-7.4-0.9c-1.2-0.4-2.4-0.9-3.4-1.7c-1-0.8-1.8-2-2.1-3.4c-0.3-1.3-0.1-2.7,0.2-4
		c0.3-1.3,0.9-2.5,1.5-3.6c1.3-2.2,2.8-4.3,4.5-6.2l0.3,1.6c-2.4-1-4.8-2.1-7-3.7c-1.1-0.8-2.1-1.8-3-2.9c-0.8-1.1-1.6-2.4-1.9-3.8
		c-0.4-1.4-0.4-2.9-0.2-4.3c0.2-1.4,0.7-2.8,1.3-4c0.6-1.2,1.3-2.4,2.2-3.5c0.8-1.1,1.7-2.1,2.8-3l0,2.2c-2-1.6-3.9-3.3-5.6-5.3
		c-1.7-2-3.3-4.3-3.8-7.2c-0.3-1.4-0.2-3,0.4-4.5c0.5-1.4,1.4-2.7,2.5-3.6c1-1,2.2-1.7,3.4-2.4c1.2-0.6,2.4-1.1,3.8-1.5l-0.1,2.8
		c-2.5-0.9-4.9-2.1-7-4.2c-1-1-1.8-2.3-2.2-3.8c-0.4-1.4-0.4-3-0.1-4.4c0.6-2.8,2-5.1,3.6-7.2c1.6-2.1,3.5-3.9,5.5-5.5l0.1,1.8
		c-2.5-1.8-5-3.7-7.2-6c-1.1-1.1-2.1-2.4-3-3.7c-0.9-1.4-1.5-2.9-1.8-4.5c-0.2-1.6,0.1-3.4,0.9-4.8c0.8-1.4,2-2.5,3.3-3.5
		C402.8,321.2,405.7,320.1,408.7,319.4z"/>
</g>
<g>
	<path class="st2" d="M384.2,327.7c-1.2,0.4-2.4,0.9-3.6,1.6c-1.1,0.6-2.2,1.3-3.2,2.1c-1,0.8-1.8,1.8-2.3,2.8
		c-0.5,1.1-0.7,2.3-0.4,3.4c0.5,2.3,2.2,4.3,4,6c1.9,1.7,4,3.2,6.1,4.6l1.2,0.8l-1.2,1c-1.5,1.3-3,2.9-4.2,4.5
		c-1.2,1.6-2.2,3.4-2.5,5.2c-0.3,1.8,0.2,3.4,1.5,4.6c1.3,1.2,3.1,2.2,5,2.8l4.2,1.5l-4.3,1.3c-1.8,0.5-3.6,1.5-4.9,2.7
		c-1.3,1.2-1.9,2.8-1.6,4.4c0.3,1.7,1.4,3.4,2.7,4.9c1.3,1.5,2.8,2.9,4.4,4.2l1.3,1.1l-1.3,1.1c-1.4,1.3-2.8,2.9-3.7,4.6
		c-0.9,1.7-1.3,3.6-0.9,5.4c0.2,0.9,0.6,1.7,1.2,2.5c0.6,0.8,1.3,1.5,2,2.1c1.6,1.3,3.4,2.3,5.4,3.1l1.4,0.6l-1,1
		c-1.4,1.4-2.8,3-3.9,4.7c-1,1.7-2,3.6-1.7,5.5c0.1,0.9,0.6,1.8,1.3,2.4c0.7,0.7,1.6,1.1,2.6,1.5c1.9,0.7,4,1.1,6.1,1.3
		c-2.1,0-4.3-0.1-6.4-0.7c-1-0.3-2.1-0.7-3-1.4c-0.9-0.7-1.6-1.7-1.9-2.9c-0.3-1.2-0.1-2.4,0.2-3.4c0.3-1.1,0.8-2.1,1.3-3.1
		c1.1-1.9,2.4-3.7,3.9-5.3l0.3,1.6c-2.1-0.8-4.1-1.8-6-3.2c-0.9-0.7-1.8-1.5-2.6-2.5c-0.7-1-1.4-2.1-1.7-3.3
		c-0.7-2.5-0.1-5.1,0.9-7.2c0.5-1.1,1.2-2.1,1.9-3c0.7-0.9,1.5-1.8,2.4-2.6l0,2.2c-1.7-1.4-3.4-2.9-4.8-4.6
		c-1.5-1.7-2.8-3.7-3.4-6.2c-0.2-1.3-0.2-2.7,0.3-3.9c0.5-1.3,1.3-2.3,2.2-3.2c0.9-0.8,1.9-1.5,2.9-2c1.1-0.5,2.1-1,3.3-1.3
		l-0.1,2.8c-2.1-0.8-4.3-1.8-6-3.6c-0.9-0.9-1.6-2-2-3.3c-0.4-1.3-0.4-2.6-0.1-3.8c0.5-2.4,1.8-4.5,3.2-6.2c1.4-1.8,3-3.3,4.8-4.7
		l0.1,1.8c-2.2-1.5-4.3-3.2-6.2-5.1c-1-1-1.8-2-2.6-3.2c-0.7-1.2-1.3-2.5-1.5-3.9c-0.2-1.4,0.1-2.9,0.8-4.2c0.7-1.2,1.7-2.2,2.8-2.9
		C379.2,329.2,381.7,328.3,384.2,327.7z"/>
</g>
<g>
	<path class="st2" d="M359,348c-1.2,0.7-2.3,1.8-2.9,3c-0.6,1.2-0.8,2.5-0.6,3.8c0.1,0.6,0.4,1.3,0.6,1.9c0.3,0.6,0.6,1.2,1,1.7
		c0.4,0.5,0.8,1.1,1.3,1.6l1.4,1.5l0.6,0.6l-0.5,0.8c-0.6,0.9-1.2,2-1.6,3c-0.4,1-0.8,2.1-0.9,3.2c-0.1,1,0,2,0.4,2.8
		c0.4,0.8,1.1,1.4,2,2l2,1.3l-2.2,1.3c-0.1,0.1-0.3,0.2-0.5,0.3c-0.2,0.1-0.4,0.3-0.5,0.4c-0.3,0.3-0.6,0.7-0.8,1.1
		c-0.4,0.8-0.5,1.7-0.4,2.6c0,0.5,0.2,1,0.3,1.5c0.2,0.5,0.4,1,0.6,1.5c0.3,0.5,0.5,1,0.8,1.4l1,1.4l0.6,0.9l-0.6,0.8
		c-0.6,0.8-1.1,1.9-1.5,2.9c-0.4,1-0.5,2.1-0.5,3.2c0,0.3,0,0.5,0.1,0.8l0.2,0.8c0.2,0.5,0.4,1,0.7,1.4c0.2,0.5,0.6,0.9,1,1.3
		c0.4,0.4,0.9,0.7,1.3,1.1l0.7,0.7l-0.4,0.6c-0.6,0.9-1.2,1.9-1.6,2.9c-0.4,1-0.8,2.1-0.9,3.1c-0.1,1,0.1,2.1,0.8,2.9
		c0.7,0.8,1.9,1.2,3,1.4c-0.6,0-1.2,0-1.8-0.2c-0.6-0.1-1.2-0.3-1.7-0.7c-0.5-0.4-0.9-0.9-1.2-1.5c-0.3-0.6-0.4-1.2-0.4-1.9
		c0-1.3,0.2-2.5,0.6-3.6c0.4-1.2,0.8-2.2,1.4-3.4l0.3,1.3c-1.1-0.7-2.2-1.6-3.1-2.8c-0.5-0.6-0.7-1.2-1.1-1.9l-0.3-1
		c-0.1-0.3-0.1-0.7-0.2-1.1c-0.2-1.4,0-2.9,0.4-4.2c0.4-1.4,0.9-2.5,1.8-3.8l0,1.7l-1.1-1.6c-0.4-0.5-0.7-1.1-1-1.7
		c-0.3-0.6-0.6-1.2-0.8-1.8c-0.2-0.7-0.4-1.3-0.5-2.1c-0.2-1.4,0-3,0.7-4.4c0.3-0.7,0.8-1.3,1.4-1.8c0.6-0.5,1.1-0.9,1.9-1.3
		l-0.2,2.6c-1.2-0.8-2.4-1.8-3.1-3.3c-0.6-1.4-0.7-3-0.5-4.4c0.2-1.4,0.7-2.7,1.3-3.9c0.6-1.2,1.3-2.3,2.1-3.3l0.1,1.4l-1.4-1.8
		c-0.4-0.6-0.8-1.3-1.2-1.9c-0.7-1.4-1.4-2.8-1.4-4.4c-0.1-1.6,0.3-3.2,1.3-4.4C356.3,349.3,357.6,348.5,359,348z"/>
</g>
</svg>
