<?xml version="1.0" encoding="utf-8"?>
<!-- Generator: Adobe Illustrator 22.1.0, SVG Export Plug-In . SVG Version: 6.00 Build 0)  -->
<svg version="1.1" id="Layer_1" xmlns="http://www.w3.org/2000/svg" xmlns:xlink="http://www.w3.org/1999/xlink" x="0px" y="0px"
	 viewBox="0 0 1366 768" style="enable-background:new 0 0 1366 768;" xml:space="preserve">
<style type="text/css">
	.st0{fill:#009245;}
	.st1{fill:#8CC63F;}
	.st2{fill:#FFFFFF;}
	.st3{fill:#00FF00;}
</style>
<g>
	<path class="st0" d="M886.6,360.6c0,0-4.1-4.5-11.5-11.5c-39-36.8-169.2-141.1-275.1-8.2l29.7,19.8L600,373
		C600,373,651.9,469.4,886.6,360.6z"/>
	<polyline class="st0" points="926.2,415 941,293.9 884.2,363.1 	"/>
	<path class="st1" d="M609.9,338.4c0,0,24.7-34.6,76.6-51.9c51.9-17.3,22.2,118.6,22.2,118.6s-79.1,2.5-98.8-29.7
		c-2.7-4.3,34.8-12.5,29.7-14.8"/>
	<circle class="st2" cx="661.8" cy="340.9" r="12.4"/>
	<circle cx="663" cy="342.1" r="8.6"/>
	<g>
		<path class="st3" d="M713.7,284c2.3,0.4,4.6,1,6.8,1.9c2.2,0.9,4.3,2.1,5.7,4.1c0.7,1,1.2,2.2,1.2,3.4c0.1,1.2-0.3,2.4-0.7,3.5
			c-1,2.2-2.5,4.1-4.2,5.8l-0.1-0.5c2.1,1.3,3.9,2.9,5.6,4.7c1.7,1.8,3.2,3.8,3.9,6.3c0.3,1.2,0.4,2.5,0.2,3.8
			c-0.2,1.3-0.8,2.4-1.5,3.5c-1.5,2-3.5,3.5-5.6,4.8l0-0.7c1.8,1.3,3.4,2.9,4.8,4.6c1.4,1.7,2.6,3.7,3,6c0.2,1.1,0.1,2.4-0.3,3.5
			c-0.4,1.1-1.1,2.1-1.9,2.9c-1.6,1.6-3.6,2.7-5.6,3.6l0.1-0.8c1.7,1.6,3.3,3.3,4.6,5.2c1.3,1.9,2.4,4.1,2.5,6.6
			c0,1.2-0.3,2.5-0.9,3.5c-0.6,1.1-1.5,1.9-2.5,2.6c-2,1.4-4.2,2.1-6.4,2.7l0.1-0.8c1.8,1.1,3.5,2.5,4.9,4.1
			c0.7,0.8,1.3,1.7,1.7,2.8c0.4,1,0.6,2.2,0.4,3.3c-0.2,1.1-0.8,2.1-1.5,2.9c-0.7,0.8-1.6,1.5-2.5,2.1c-1.8,1.2-3.7,2-5.7,2.8
			l0.1-0.5c1.7,1.8,3.2,3.7,4.4,5.8c1.2,2.1,2.2,4.5,1.9,7c-0.1,1.2-0.6,2.4-1.5,3.3c-0.8,0.9-1.9,1.6-3,2.1c-2.2,1-4.6,1.4-7,1.7
			c2.4-0.3,4.8-0.8,7-1.8c1.1-0.5,2.1-1.2,2.9-2.1c0.8-0.9,1.2-2,1.3-3.2c0.2-2.4-0.8-4.7-2-6.7c-1.2-2.1-2.7-4-4.4-5.7l-0.3-0.3
			l0.4-0.2c1.9-0.8,3.8-1.6,5.5-2.8c1.7-1.1,3.2-2.7,3.6-4.6c0.3-1.9-0.7-3.9-2-5.4c-1.3-1.5-3-2.8-4.7-3.9l-0.9-0.5l1-0.3
			c2.2-0.6,4.3-1.3,6.1-2.6c0.9-0.6,1.7-1.4,2.2-2.3c0.5-0.9,0.8-2,0.7-3c-0.1-2.2-1.1-4.2-2.4-6c-1.3-1.8-2.8-3.5-4.5-5l-0.6-0.5
			l0.7-0.3c2-0.8,3.9-1.9,5.3-3.4c0.7-0.7,1.3-1.6,1.7-2.5c0.4-1,0.4-2,0.3-3c-0.3-2-1.4-3.9-2.8-5.6c-1.3-1.7-2.9-3.2-4.6-4.4
			l-0.5-0.4l0.6-0.3c2.1-1.2,4-2.6,5.4-4.5c0.7-0.9,1.2-2,1.4-3.1c0.2-1.1,0.2-2.3-0.1-3.4c-0.6-2.2-2-4.2-3.6-6
			c-1.6-1.7-3.5-3.3-5.4-4.6l-0.3-0.2l0.3-0.3c1.7-1.6,3.2-3.5,4.1-5.6c0.5-1,0.8-2.2,0.8-3.3c0-1.1-0.4-2.3-1.1-3.2
			c-1.3-1.9-3.4-3.2-5.5-4.1C718.3,285.2,716,284.5,713.7,284z"/>
	</g>
	<g>
		<path class="st3" d="M735.9,292c2,0.3,4,0.9,5.9,1.7c1.9,0.8,3.7,1.9,5,3.6c0.6,0.8,1,1.9,1.1,3c0.1,1.1-0.2,2.1-0.6,3.1
			c-0.8,1.9-2.2,3.6-3.6,5l-0.1-0.5c1.8,1.2,3.4,2.5,4.9,4c1.4,1.5,2.8,3.3,3.4,5.4c0.3,1.1,0.4,2.2,0.2,3.3c-0.2,1.1-0.7,2.1-1.3,3
			c-1.3,1.8-3.1,3.1-4.9,4.1l0-0.7c1.6,1.2,3,2.5,4.2,4c1.2,1.5,2.3,3.2,2.6,5.3c0.2,1,0.1,2.1-0.3,3c-0.4,1-1,1.8-1.7,2.5
			c-1.4,1.4-3.2,2.4-4.9,3.2l0.1-0.8c1.5,1.4,2.9,2.9,4,4.5c1.1,1.7,2.1,3.6,2.2,5.7c0,1.1-0.2,2.2-0.8,3.1
			c-0.5,0.9-1.3,1.7-2.2,2.3c-1.7,1.2-3.7,1.8-5.6,2.3l0.1-0.8c1.6,1,3.1,2.1,4.3,3.6c0.6,0.7,1.2,1.5,1.5,2.4
			c0.4,0.9,0.5,1.9,0.3,2.9c-0.2,1-0.7,1.9-1.3,2.6c-0.6,0.7-1.4,1.3-2.1,1.8c-1.6,1-3.3,1.8-5,2.4l0.1-0.5c1.5,1.6,2.8,3.2,3.8,5.1
			c1,1.8,1.9,3.9,1.7,6.1c-0.1,1.1-0.6,2.1-1.3,2.9c-0.7,0.8-1.6,1.4-2.6,1.8c-1.9,0.9-4,1.2-6.1,1.4c2.1-0.3,4.2-0.7,6-1.6
			c0.9-0.4,1.8-1.1,2.5-1.8c0.7-0.8,1.1-1.8,1.1-2.8c0.1-2.1-0.7-4-1.8-5.8c-1.1-1.8-2.4-3.4-3.8-4.9l-0.3-0.3l0.4-0.2
			c1.7-0.7,3.3-1.4,4.8-2.4c1.4-1,2.8-2.3,3.1-4c0.3-1.7-0.6-3.3-1.7-4.6c-1.2-1.3-2.6-2.4-4.1-3.4l-0.9-0.5l1-0.3
			c1.9-0.5,3.8-1.1,5.3-2.2c1.6-1,2.7-2.7,2.5-4.6c-0.1-1.8-1-3.6-2.1-5.2c-1.1-1.6-2.4-3.1-3.9-4.3l-0.6-0.5l0.7-0.3
			c1.7-0.7,3.4-1.6,4.6-2.9c0.6-0.6,1.2-1.4,1.5-2.2c0.3-0.8,0.4-1.7,0.3-2.6c-0.3-1.8-1.2-3.4-2.4-4.8c-1.2-1.4-2.5-2.7-4-3.8
			l-0.5-0.4l0.6-0.3c1.8-1,3.5-2.3,4.7-3.9c0.6-0.8,1-1.7,1.2-2.7c0.2-1,0.1-2-0.1-2.9c-0.5-1.9-1.7-3.7-3.1-5.2
			c-1.4-1.5-3-2.9-4.7-4l-0.3-0.2l0.3-0.3c1.4-1.4,2.8-3,3.6-4.8c0.4-0.9,0.7-1.9,0.7-2.9c0-1-0.4-2-0.9-2.8c-1.1-1.7-3-2.8-4.8-3.6
			C739.9,293.1,737.9,292.4,735.9,292z"/>
	</g>
	<g>
		<path class="st3" d="M755.7,292c2,0.3,4,0.9,5.9,1.7c1.9,0.8,3.7,1.9,5,3.6c0.6,0.8,1,1.9,1.1,3c0.1,1.1-0.2,2.1-0.6,3.1
			c-0.8,1.9-2.2,3.6-3.6,5l-0.1-0.5c1.8,1.2,3.4,2.5,4.9,4c1.4,1.5,2.8,3.3,3.4,5.4c0.3,1.1,0.4,2.2,0.2,3.3c-0.2,1.1-0.7,2.1-1.3,3
			c-1.3,1.8-3.1,3.1-4.9,4.1l0-0.7c1.6,1.2,3,2.5,4.2,4c1.2,1.5,2.3,3.2,2.6,5.3c0.2,1,0.1,2.1-0.3,3c-0.4,1-1,1.8-1.7,2.5
			c-1.4,1.4-3.2,2.4-4.9,3.2l0.1-0.8c1.5,1.4,2.9,2.9,4,4.5c1.1,1.7,2.1,3.6,2.2,5.7c0,1.1-0.2,2.2-0.8,3.1
			c-0.5,0.9-1.3,1.7-2.2,2.3c-1.7,1.2-3.7,1.8-5.6,2.3l0.1-0.8c1.6,1,3.1,2.1,4.3,3.6c0.6,0.7,1.2,1.5,1.5,2.4
			c0.4,0.9,0.5,1.9,0.3,2.9c-0.2,1-0.7,1.9-1.3,2.6c-0.6,0.7-1.4,1.3-2.1,1.8c-1.6,1-3.3,1.8-5,2.4l0.1-0.5c1.5,1.6,2.8,3.2,3.8,5.1
			c1,1.8,1.9,3.9,1.7,6.1c-0.1,1.1-0.6,2.1-1.3,2.9c-0.7,0.8-1.6,1.4-2.6,1.8c-1.9,0.9-4,1.2-6.1,1.4c2.1-0.3,4.2-0.7,6-1.6
			c0.9-0.4,1.8-1.1,2.5-1.8c0.7-0.8,1.1-1.8,1.1-2.8c0.1-2.1-0.7-4-1.8-5.8c-1.1-1.8-2.4-3.4-3.8-4.9l-0.3-0.3l0.4-0.2
			c1.7-0.7,3.3-1.4,4.8-2.4c1.4-1,2.8-2.3,3.1-4c0.3-1.7-0.6-3.3-1.7-4.6c-1.2-1.3-2.6-2.4-4.1-3.4l-0.9-0.5l1-0.3
			c1.9-0.5,3.8-1.1,5.3-2.2c1.6-1,2.7-2.7,2.5-4.6c-0.1-1.8-1-3.6-2.1-5.2c-1.1-1.6-2.4-3.1-3.9-4.3l-0.6-0.5l0.7-0.3
			c1.7-0.7,3.4-1.6,4.6-2.9c0.6-0.6,1.2-1.4,1.5-2.2c0.3-0.8,0.4-1.7,0.3-2.6c-0.3-1.8-1.2-3.4-2.4-4.8c-1.2-1.4-2.5-2.7-4-3.8
			l-0.5-0.4l0.6-0.3c1.8-1,3.5-2.3,4.7-3.9c0.6-0.8,1-1.7,1.2-2.7c0.2-1,0.1-2-0.1-2.9c-0.5-1.9-1.7-3.7-3.1-5.2
			c-1.4-1.5-3-2.9-4.7-4l-0.3-0.2l0.3-0.3c1.4-1.4,2.8-3,3.6-4.8c0.4-0.9,0.7-1.9,0.7-2.9c0-1-0.4-2-0.9-2.8c-1.1-1.7-3-2.8-4.8-3.6
			C759.7,293.1,757.7,292.4,755.7,292z"/>
	</g>
	<g>
		<path class="st3" d="M777.9,292c2,0.3,4,0.9,5.9,1.7c1.9,0.8,3.7,1.9,5,3.6c0.6,0.8,1,1.9,1.1,3c0.1,1.1-0.2,2.1-0.6,3.1
			c-0.8,1.9-2.2,3.6-3.6,5l-0.1-0.5c1.8,1.2,3.4,2.5,4.9,4c1.4,1.5,2.8,3.3,3.4,5.4c0.3,1.1,0.4,2.2,0.2,3.3c-0.2,1.1-0.7,2.1-1.3,3
			c-1.3,1.8-3.1,3.1-4.9,4.1l0-0.7c1.6,1.2,3,2.5,4.2,4c1.2,1.5,2.3,3.2,2.6,5.3c0.2,1,0.1,2.1-0.3,3c-0.4,1-1,1.8-1.7,2.5
			c-1.4,1.4-3.2,2.4-4.9,3.2l0.1-0.8c1.5,1.4,2.9,2.9,4,4.5c1.1,1.7,2.1,3.6,2.2,5.7c0,1.1-0.2,2.2-0.8,3.1
			c-0.5,0.9-1.3,1.7-2.2,2.3c-1.7,1.2-3.7,1.8-5.6,2.3l0.1-0.8c1.6,1,3.1,2.1,4.3,3.6c0.6,0.7,1.2,1.5,1.5,2.4
			c0.4,0.9,0.5,1.9,0.3,2.9c-0.2,1-0.7,1.9-1.3,2.6c-0.6,0.7-1.4,1.3-2.1,1.8c-1.6,1-3.3,1.8-5,2.4l0.1-0.5c1.5,1.6,2.8,3.2,3.8,5.1
			c1,1.8,1.9,3.9,1.7,6.1c-0.1,1.1-0.6,2.1-1.3,2.9c-0.7,0.8-1.6,1.4-2.6,1.8c-1.9,0.9-4,1.2-6.1,1.4c2.1-0.3,4.2-0.7,6-1.6
			c0.9-0.4,1.8-1.1,2.5-1.8c0.7-0.8,1.1-1.8,1.1-2.8c0.1-2.1-0.7-4-1.8-5.8c-1.1-1.8-2.4-3.4-3.8-4.9l-0.3-0.3l0.4-0.2
			c1.7-0.7,3.3-1.4,4.8-2.4c1.4-1,2.8-2.3,3.1-4c0.3-1.7-0.6-3.3-1.7-4.6c-1.2-1.3-2.6-2.4-4.1-3.4l-0.9-0.5l1-0.3
			c1.9-0.5,3.8-1.1,5.3-2.2c1.6-1,2.7-2.7,2.5-4.6c-0.1-1.8-1-3.6-2.1-5.2c-1.1-1.6-2.4-3.1-3.9-4.3l-0.6-0.5l0.7-0.3
			c1.7-0.7,3.4-1.6,4.6-2.9c0.6-0.6,1.2-1.4,1.5-2.2c0.3-0.8,0.4-1.7,0.3-2.6c-0.3-1.8-1.2-3.4-2.4-4.8c-1.2-1.4-2.5-2.7-4-3.8
			l-0.5-0.4l0.6-0.3c1.8-1,3.5-2.3,4.7-3.9c0.6-0.8,1-1.7,1.2-2.7c0.2-1,0.1-2-0.1-2.9c-0.5-1.9-1.7-3.7-3.1-5.2
			c-1.4-1.5-3-2.9-4.7-4l-0.3-0.2l0.3-0.3c1.4-1.4,2.8-3,3.6-4.8c0.4-0.9,0.7-1.9,0.7-2.9c0-1-0.4-2-0.9-2.8c-1.1-1.7-3-2.8-4.8-3.6
			C781.9,293.1,779.9,292.4,777.9,292z"/>
	</g>
	<g>
		<path class="st3" d="M805.1,306.3c1.2,0.4,2.3,1.1,3.1,2c0.8,0.9,1.4,2.1,1.6,3.3c0.3,1.3,0,2.5-0.2,3.8c-0.2,0.6-0.4,1.2-0.6,1.8
			l-0.8,1.7l0-0.3c0.9,1.1,1.6,2.3,2.2,3.6c0.6,1.3,1,2.6,1.2,4c0.2,1.4,0.1,2.8-0.3,4.2c-0.4,1.4-1.2,2.6-2.1,3.7l0-0.6
			c0.7,1.1,1.3,2.2,1.8,3.3c0.5,1.2,0.8,2.4,0.9,3.7c0.1,1.3,0,2.6-0.5,3.8c-0.5,1.2-1.3,2.3-2.3,3.1l0.1-0.6
			c0.6,1.1,1.1,2.3,1.6,3.5c0.4,1.2,0.7,2.5,0.8,3.8c0.1,1.3,0,2.7-0.6,3.9c-0.6,1.2-1.7,2.1-2.9,2.8l0.1-0.7c0.8,0.9,1.3,1.9,1.8,3
			c0.4,1.1,0.7,2.2,0.7,3.4c0,0.6-0.1,1.2-0.3,1.7c-0.2,0.5-0.4,1.1-0.8,1.6c-0.3,0.5-0.7,0.9-1.1,1.4c-0.4,0.4-0.9,0.7-1.3,1.1
			l0.1-0.4c0.6,1.2,1,2.4,1.4,3.7c0.4,1.3,0.6,2.6,0.7,3.9c0.1,1.3-0.1,2.7-0.8,3.8c-0.3,0.6-0.8,1-1.4,1.4
			c-0.6,0.3-1.2,0.5-1.8,0.7c0.6-0.2,1.2-0.4,1.8-0.8c0.5-0.4,1-0.8,1.3-1.4c0.6-1.1,0.7-2.4,0.6-3.7c-0.1-1.3-0.4-2.5-0.8-3.8
			c-0.4-1.2-0.9-2.4-1.5-3.6l-0.1-0.2l0.2-0.2c0.4-0.4,0.8-0.7,1.2-1.1c0.3-0.4,0.7-0.8,1-1.3c0.3-0.4,0.5-0.9,0.7-1.4
			c0.1-0.5,0.2-1,0.2-1.6c0-1-0.2-2.1-0.7-3.1c-0.4-1-1-1.9-1.7-2.7l-0.4-0.4l0.5-0.3c1-0.6,1.9-1.3,2.4-2.4c0.5-1,0.6-2.3,0.5-3.4
			c-0.1-1.2-0.4-2.4-0.8-3.5c-0.4-1.1-0.9-2.3-1.5-3.3l-0.2-0.3l0.3-0.3c0.8-0.8,1.6-1.7,2-2.7c0.4-1.1,0.5-2.2,0.4-3.4
			c-0.1-1.2-0.4-2.3-0.8-3.4c-0.4-1.1-1-2.2-1.6-3.2l-0.2-0.3l0.2-0.3c0.8-1,1.6-2.1,1.9-3.4c0.4-1.2,0.5-2.6,0.4-3.9
			c-0.2-1.3-0.5-2.6-1.1-3.8c-0.5-1.2-1.2-2.4-2-3.5l-0.1-0.1l0.1-0.2l0.8-1.7c0.2-0.6,0.4-1.1,0.6-1.7c0.3-1.2,0.5-2.4,0.3-3.6
			c-0.2-1.2-0.6-2.3-1.4-3.3C807.3,307.5,806.2,306.7,805.1,306.3z"/>
	</g>
	<g>
		<path class="st3" d="M822.4,321c1.1,0.2,2.2,0.4,3.2,0.9c1,0.4,2.1,1,2.8,1.9c0.4,0.5,0.6,1.1,0.6,1.7c0,0.6-0.1,1.2-0.3,1.7
			c-0.5,1.1-1.2,2-2,2.8l-0.1-0.5c1,0.6,1.9,1.4,2.7,2.2c0.8,0.9,1.5,1.8,1.9,3c0.2,0.6,0.2,1.2,0.1,1.9c-0.1,0.6-0.4,1.2-0.7,1.7
			c-0.7,1-1.7,1.7-2.7,2.3l0-0.7c0.9,0.7,1.7,1.4,2.3,2.2c0.7,0.8,1.3,1.8,1.5,3c0.1,0.6,0,1.2-0.2,1.8c-0.2,0.6-0.6,1.1-1,1.5
			c-0.8,0.8-1.8,1.4-2.8,1.8l0.1-0.8c0.8,0.8,1.6,1.6,2.2,2.5c0.6,0.9,1.2,2,1.2,3.2c0,0.6-0.1,1.3-0.5,1.8c-0.3,0.5-0.8,1-1.3,1.3
			c-1,0.7-2.1,1-3.1,1.3l0.1-0.8c0.9,0.6,1.7,1.2,2.4,2c0.7,0.8,1.3,1.9,1,3.1c-0.2,1.2-1.1,2-2,2.5c-0.9,0.6-1.8,1-2.8,1.3l0.1-0.5
			c0.8,0.9,1.5,1.8,2.1,2.8c0.6,1,1,2.2,0.9,3.4c-0.1,1.3-1.1,2.2-2.2,2.6c-1.1,0.5-2.2,0.6-3.4,0.7c1.1-0.2,2.3-0.4,3.3-0.9
			c1-0.5,1.9-1.4,1.9-2.5c0.1-1.1-0.4-2.2-1-3.1c-0.6-1-1.3-1.9-2.1-2.6l-0.3-0.3l0.4-0.2c0.9-0.4,1.8-0.8,2.6-1.3
			c0.8-0.5,1.5-1.2,1.6-2.1c0.1-0.8-0.3-1.7-0.9-2.4c-0.6-0.7-1.4-1.3-2.2-1.8l-0.9-0.5l1-0.3c1-0.3,2-0.6,2.8-1.2
			c0.8-0.6,1.3-1.4,1.3-2.3c0-0.9-0.5-1.9-1.1-2.7c-0.6-0.8-1.3-1.6-2.1-2.3l-0.6-0.5l0.7-0.3c0.9-0.4,1.8-0.9,2.5-1.5
			c0.7-0.7,1-1.5,0.9-2.4c-0.1-0.9-0.6-1.8-1.3-2.5c-0.6-0.8-1.4-1.5-2.1-2.1l-0.5-0.4l0.6-0.3c1-0.5,1.9-1.2,2.5-2.1
			c0.6-0.8,0.9-1.9,0.6-2.9c-0.3-1-0.9-2-1.6-2.8c-0.7-0.8-1.6-1.6-2.5-2.2l-0.3-0.2l0.3-0.3c0.8-0.8,1.5-1.6,2-2.6
			c0.5-0.9,0.5-2.1-0.1-3c-0.6-0.9-1.6-1.5-2.6-2C824.6,321.6,823.5,321.2,822.4,321z"/>
	</g>
	<g>
		<path class="st3" d="M844.6,330.9c0.8,0.1,1.6,0.3,2.4,0.6c0.8,0.3,1.5,0.7,2,1.4c0.6,0.7,0.6,1.7,0.2,2.5
			c-0.1,0.4-0.4,0.7-0.6,1.1l-0.8,1l-0.1-0.5c0.7,0.5,1.4,1,2,1.6c0.6,0.6,1.1,1.3,1.4,2.2c0.3,0.9,0.1,2-0.5,2.7
			c-0.2,0.4-0.6,0.7-0.9,1c-0.3,0.3-0.7,0.5-1.1,0.7l0-0.7c0.6,0.5,1.2,1,1.7,1.6c0.5,0.6,1,1.3,1.1,2.2c0,0.2,0,0.4,0,0.7l-0.1,0.7
			l-0.3,0.6c-0.1,0.2-0.3,0.3-0.4,0.5c-0.3,0.3-0.6,0.5-1,0.8c-0.4,0.2-0.7,0.4-1.1,0.5l0.1-0.8c0.6,0.6,1.2,1.2,1.6,1.9
			c0.5,0.7,0.9,1.5,0.9,2.4c0.1,1-0.6,1.9-1.3,2.3c-0.4,0.3-0.8,0.4-1.1,0.6l-1.2,0.4l0.1-0.8c0.7,0.4,1.2,0.9,1.8,1.5
			c0.5,0.6,0.9,1.4,0.8,2.3c-0.2,0.9-0.9,1.4-1.5,1.9c-0.3,0.2-0.7,0.4-1,0.5l-1,0.4l0.1-0.5c0.6,0.6,1.1,1.3,1.5,2.1
			c0.4,0.7,0.7,1.6,0.6,2.5c-0.1,0.9-0.8,1.6-1.6,1.9c-0.4,0.2-0.8,0.3-1.2,0.4l-1.2,0.2l1.2-0.3c0.4-0.1,0.8-0.3,1.1-0.4
			c0.7-0.3,1.3-1,1.3-1.8c0-0.8-0.3-1.5-0.7-2.2c-0.4-0.7-0.9-1.3-1.5-1.9l-0.3-0.3l0.4-0.2l1-0.4c0.3-0.2,0.6-0.4,0.9-0.5
			c0.5-0.4,1-0.9,1.1-1.4c0.1-0.5-0.2-1.1-0.7-1.6c-0.4-0.5-1-0.9-1.6-1.3l-0.8-0.5l0.9-0.3l1.1-0.3c0.3-0.2,0.7-0.3,0.9-0.5
			c0.6-0.4,0.9-0.9,0.9-1.6c0-0.6-0.4-1.3-0.8-1.9c-0.4-0.6-0.9-1.2-1.5-1.6l-0.6-0.5l0.7-0.3l0.9-0.5c0.3-0.2,0.6-0.4,0.8-0.6
			c0.5-0.4,0.7-1,0.6-1.6c-0.1-0.6-0.4-1.2-0.9-1.8c-0.4-0.5-1-1.1-1.5-1.5l-0.5-0.4l0.5-0.4c0.3-0.2,0.7-0.4,1-0.7
			c0.3-0.3,0.6-0.5,0.8-0.8c0.4-0.6,0.6-1.3,0.4-2c-0.2-0.7-0.6-1.4-1.2-2c-0.5-0.6-1.2-1.1-1.8-1.6l-0.3-0.2l0.2-0.3l0.8-0.9
			c0.2-0.3,0.5-0.6,0.6-1c0.4-0.7,0.4-1.5,0-2.1c-0.4-0.6-1.1-1.1-1.8-1.4C846.2,331.3,845.4,331.1,844.6,330.9z"/>
	</g>
	<g>
		<path class="st3" d="M894.1,358.2c3-3.3,6.2-6.6,9.3-9.8c3.1-3.2,6.3-6.4,9.5-9.7c3.2-3.2,6.4-6.4,9.7-9.5l4.9-4.7
			c1.7-1.5,3.3-3.1,5-4.6c-1.5,1.7-3.1,3.3-4.6,5l-4.7,4.9c-3.1,3.2-6.3,6.4-9.5,9.7c-3.2,3.2-6.4,6.4-9.7,9.5
			C900.6,352,897.4,355.1,894.1,358.2z"/>
	</g>
	<g>
		<path class="st3" d="M891.4,360.8c3-1.8,6.1-3.6,9.1-5.3c3.1-1.7,6.2-3.4,9.3-5.1c3.1-1.7,6.2-3.3,9.4-4.9l4.7-2.4
			c1.6-0.8,3.2-1.5,4.8-2.3c-1.5,0.9-3,1.8-4.5,2.7l-4.6,2.6c-3.1,1.7-6.2,3.4-9.3,5.1c-3.1,1.7-6.2,3.3-9.4,4.9
			C897.7,357.8,894.6,359.3,891.4,360.8z"/>
	</g>
	<g>
		<path class="st3" d="M889.9,363.7c3,3.1,5.9,6.3,8.7,9.5c2.9,3.2,5.7,6.4,8.5,9.6c2.8,3.3,5.6,6.5,8.4,9.8l4.1,5
			c1.3,1.7,2.7,3.3,4,5c-1.5-1.5-2.9-3.1-4.4-4.7l-4.3-4.8c-2.9-3.2-5.7-6.4-8.5-9.7c-2.8-3.3-5.6-6.5-8.4-9.8
			C895.3,370.4,892.6,367.1,889.9,363.7z"/>
	</g>
	<g>
		<path class="st3" d="M891.4,364.3c3,1.4,5.9,2.8,8.9,4.3c2.9,1.5,5.9,3,8.8,4.5c2.9,1.6,5.8,3.1,8.7,4.7l4.3,2.4
			c1.4,0.8,2.8,1.7,4.2,2.5c-1.5-0.7-3-1.4-4.5-2.1l-4.4-2.2c-2.9-1.5-5.9-3-8.8-4.5c-2.9-1.6-5.8-3.1-8.6-4.7
			C897,367.7,894.2,366.1,891.4,364.3z"/>
	</g>
	<g>
		<path class="st3" d="M891.5,361.6c3.3-0.3,6.6-0.4,9.9-0.6c3.3-0.2,6.6-0.2,9.9-0.3c3.3,0,6.6-0.1,9.9-0.1l4.9,0
			c1.6,0.1,3.3,0.1,4.9,0.2c-1.6,0.1-3.3,0.2-4.9,0.3l-4.9,0.2c-3.3,0.2-6.6,0.2-9.9,0.3c-3.3,0-6.6,0.1-9.9,0.1
			C898.1,361.8,894.8,361.8,891.5,361.6z"/>
	</g>
</g>
</svg>
